<svg width="283" height="75" viewBox="0 0 283 75" fill="none" xmlns="http://www.w3.org/2000/svg">
<path d="M22.1 12.6999C29.8 10.0999 30.3 0.499908 22.8 0.499908C20.7 0.499908 18.2 1.9999 16.5 4.8999L6.30002 22.5999C5.80002 23.3999 5.40002 24.0999 4.80002 24.7999C2.20002 21.1999 2.90002 15.7999 6.60002 13.3999L5.10002 11.4999C-2.89998 16.5999 -0.499978 31.1999 12.8 31.1999C24.1 31.1999 29.4 17.5999 22.1 12.6999ZM12.7 28.2999C10.4 28.2999 8.70002 27.7999 7.20002 26.9999C7.90002 26.1999 8.50002 25.2999 9.10002 24.2999L15.5 13.1999L16.5 13.2999C25.4 15.1999 21.9 28.2999 12.7 28.2999ZM16.8 10.9999L19.9 5.69992C22.7 0.89992 26.2 3.6999 24.3 7.2999C22.8 10.0999 20.7 10.8999 16.8 10.9999Z" fill="white"/>
<path d="M54.2001 24.9999C53.6 27.1999 54.8001 29.0999 57.3001 29.0999C58.8001 29.0999 60.7001 28.0999 62.6001 26.5999C62.8001 28.0999 64 29.0999 65.9 29.0999C67.9 29.0999 70.1001 27.6999 72.3001 25.6999C71.9001 27.6999 72.8 29.0999 74.7001 29.0999C76.8 29.0999 79.1 27.1999 80.9 25.4999C80.5 27.4999 81.7001 29.0999 84.1001 29.0999C87.2001 29.0999 90.8001 25.6999 94.0001 22.0999C94.0001 21.9999 93.9 21.9999 93.9 21.8999C96 19.4999 97.8 16.8999 99.2001 15.0999C97.7001 18.9999 98.5 26.0999 94.9 26.0999C93.6 26.0999 93.1001 24.6999 93.1001 24.6999L90.7001 25.8999C90.7001 25.8999 91.4 28.9999 94.9 28.9999C95.3 28.9999 95.6001 28.9999 96.0001 28.8999H96.1001C98.9001 28.4999 101.6 26.7999 104 24.6999C104.1 27.1999 106 28.9999 109.1 28.9999C113.4 28.9999 117.7 25.5999 120.8 21.9999C120.5 21.4999 119.9 20.8999 119.4 20.6999L119.1 20.9999C116.4 24.1999 112.9 26.6999 110.2 26.6999C107.9 26.6999 106.5 25.1999 108.2 22.1999L108.6 21.4999C111 22.4999 115.6 21.9999 118.5 17.0999L119 16.1999C121 12.6999 119.1 10.0999 116 10.0999C112.9 10.0999 110.5 11.6999 108.9 14.4999L105.2 20.7999H105.1L104.8 21.0999C103.4 22.6999 101.7 24.1999 100.2 25.1999C101.4 21.5999 101.1 15.9999 103.5 11.1999L100.7 9.69992C99.1001 11.8999 95.7001 16.7999 92.3001 20.7999L92.4 20.8999L92.3001 21.0999C89.6001 24.2999 86.9001 26.7999 85.2001 26.7999C84.4001 26.7999 83.9001 26.1999 84.8001 24.6999L92.9 10.4999H89.1001L82.4 22.2999C79.5 24.8999 77.3001 26.3999 76.6001 26.0999C75.7001 25.6999 76.6001 24.2999 77.1001 23.4999L84.5001 10.5999H80.7001L74.7001 20.9999C74.6001 20.8999 74.5 20.8999 74.4 20.7999L74.1001 21.0999C71.4001 24.2999 68.7001 26.7999 67.0001 26.7999C66.2001 26.7999 65.7001 26.1999 66.6001 24.6999L72.7001 13.9999H70.5001C70.6001 12.3999 69.0001 10.1999 66.5001 10.1999C64.5001 10.1999 61.6001 11.7999 60.0001 14.5999L56.2001 21.1999C56 20.9999 55.8001 20.8999 55.6001 20.7999L55.3001 21.0999C52.6001 24.2999 49.1 26.7999 46.4 26.7999C44.1 26.7999 42.7 25.2999 44.4 22.2999L48.3001 15.4999C50.5001 11.6999 54.4001 12.3999 52.1001 16.2999L51.6001 17.1999H54.7001L55.2001 16.2999C57.2001 12.7999 55.3001 10.1999 52.2001 10.1999C49.1 10.1999 46.7001 11.7999 45.1001 14.5999L41.3001 21.0999C41.2001 20.9999 41.1001 20.9999 41.0001 20.8999L40.7001 21.1999C38.0001 24.3999 34.5001 26.8999 31.8001 26.8999C29.5001 26.8999 28.1001 25.3999 29.8001 22.3999L30.2001 21.6999C32.6001 22.6999 37.2001 22.1999 40.1001 17.2999L40.6001 16.3999C42.6001 12.8999 40.7001 10.2999 37.6001 10.2999C34.5001 10.2999 32.1001 11.8999 30.5001 14.6999L26.5001 21.4999C24.1001 25.4999 26.2001 29.2999 30.7001 29.2999C34.0001 29.2999 37.4001 27.2999 40.1001 24.6999C40.0001 27.2999 42 29.2999 45.2001 29.2999C48.4001 29.0999 51.5 27.2999 54.2001 24.9999ZM112.2 15.3999C114.4 11.5999 118.3 12.2999 116 16.1999L115.5 17.0999C113.7 20.1999 111.2 20.0999 109.8 19.5999L112.2 15.3999ZM58.0001 24.6999L63.3001 15.4999C65.3001 11.9999 69.4001 12.8999 67.5001 16.2999L64.5001 21.4999C62.2001 25.0999 59.9 26.7999 58.4 26.7999C57.6 26.6999 57.1001 26.1999 58.0001 24.6999ZM33.8001 15.3999C36.0001 11.5999 39.9001 12.2999 37.6001 16.1999L37.1001 17.0999C35.3001 20.1999 32.8001 20.0999 31.4001 19.5999L33.8001 15.3999Z" fill="white"/>
<path d="M162.4 29.0999C166.7 29.0999 171 25.6999 174.1 22.0999C173.8 21.5999 173.2 20.9999 172.7 20.7999L172.4 21.0999C169.7 24.2999 166.2 26.7999 163.5 26.7999C161.2 26.7999 159.8 25.2999 161.5 22.2999L161.9 21.5999C164.3 22.5999 168.9 22.0999 171.8 17.1999L172.3 16.2999C174.3 12.7999 172.4 10.1999 169.3 10.1999C166.2 10.1999 163.8 11.7999 162.2 14.5999L158.5 20.8999C158.5 20.8999 158.4 20.8999 158.4 20.7999L158.1 21.0999C155.4 24.2999 152.7 26.7999 151 26.7999C150.2 26.7999 149.7 26.1999 150.6 24.6999L156.1 15.0999C157.7 12.1999 156.2 10.0999 154.1 10.0999C152.5 10.0999 150.7 10.9999 148.8 12.9999L154.9 2.49991H151L140.3 20.9999C140.2 20.8999 140 20.7999 139.9 20.6999L139.6 20.9999C136.9 24.1999 134.2 26.6999 132.5 26.6999C131.7 26.6999 131.2 26.0999 132.1 24.5999L140.2 10.3999H143.3L144.4 8.59991H141.3L144.9 2.3999H141.1L137.5 8.59991H134.1L133 10.3999H136.5L128.9 23.5999C127.3 26.3999 128.4 28.9999 131.5 28.9999C133.4 28.9999 135.4 27.7999 137.5 25.9999L136 28.5999H139.8L145.6 18.5999C151.4 11.2999 154 12.1999 152.4 14.9999L147.5 23.5999C145.9 26.3999 147 28.9999 150.1 28.9999C152.4 28.9999 155 27.1999 157.4 24.7999C157.4 27.2999 159.3 29.0999 162.4 29.0999ZM165.5 15.3999C167.7 11.5999 171.6 12.2999 169.3 16.1999L168.8 17.0999C167 20.1999 164.5 20.0999 163.1 19.5999L165.5 15.3999Z" fill="white"/>
<path d="M277.4 20.7999L277.1 21.0999C274.4 24.2999 271.7 26.7999 270 26.7999C269.2 26.7999 268.7 26.1999 269.6 24.6999L282.4 2.49991H278.6L273 12.0999C272.3 10.9999 271.1 10.0999 269.5 10.0999C267.5 10.0999 264.6 11.6999 263 14.4999L259.3 20.8999C259.2 20.8999 259.1 20.7999 259.1 20.7999L258.8 21.0999C256.1 24.2999 253.4 26.7999 251.7 26.7999C250.9 26.7999 250.4 26.1999 251.3 24.6999L256.8 15.0999C258.4 12.1999 256.9 10.0999 254.8 10.0999C253.2 10.0999 251.4 10.9999 249.5 12.8999L250.9 10.3999H247.1L241 20.8999C240.9 20.7999 240.8 20.6999 240.6 20.6999L240.3 20.9999C237.6 24.1999 234.9 26.6999 233.2 26.6999C232.4 26.6999 231.9 26.0999 232.8 24.5999L238.9 13.8999H237C237.1 12.2999 235.5 10.0999 233 10.0999C231 10.0999 228.1 11.6999 226.5 14.4999L222.8 20.7999L222.6 20.9999C219.9 24.1999 217.2 26.6999 215.5 26.6999C214.7 26.6999 214.2 26.0999 215.1 24.5999L218.9 17.9999C220.2 15.6999 219.6 14.3999 218.4 12.8999L216.3 10.2999C215.8 9.5999 215.8 8.79991 216.5 8.09991L214.5 5.8999C212.3 7.7999 212.2 9.99992 213.5 11.6999L213.8 12.0999C212.1 14.4999 209.9 17.6999 207.4 20.5999C207.5 20.6999 207.6 20.7999 207.7 20.8999C204.6 24.4999 201.9 26.7999 198.9 28.0999L203.7 19.8999H200L199.6 20.5999C197.6 24.0999 195.3 26.6999 192.3 26.6999C189.7 26.6999 189.2 24.0999 191.5 20.1999L192.6 18.2999C193.3 18.3999 194 18.4999 194.8 18.4999C208.3 18.4999 214.8 0.399902 202.9 0.399902C200.8 0.399902 198.3 1.8999 196.6 4.7999L190.7 14.9999C188.5 13.7999 187.3 11.6999 187.3 9.59991C187.3 7.79991 188.1 6.0999 189.7 4.7999L188.5 2.59991C185.8 4.49991 184.6 7.09992 184.6 9.69992C184.6 12.6999 186.3 15.5999 189.4 17.1999L188.3 19.1999C185.6 23.7999 186.1 28.8999 191.5 28.8999C193.1 28.8999 194.5 28.3999 195.6 27.6999L194.6 29.3999C189.5 30.9999 186.3 32.9999 186.3 35.8999C186.3 39.4999 191.9 40.2999 194.6 35.5999L197.5 30.5999C201.4 29.3999 205.3 26.6999 209.5 21.7999C209.4 21.6999 209.4 21.5999 209.3 21.3999C211 19.3999 212.4 17.4999 215.3 13.5999L215.8 14.1999C216.3 14.7999 216.5 15.5999 216 16.3999L212 23.3999C210.4 26.1999 211.5 28.7999 214.6 28.7999C216.5 28.7999 218.6 27.5999 220.6 25.7999C220.6 27.4999 221.7 28.7999 223.9 28.7999C225.4 28.7999 227.3 27.7999 229.2 26.2999C229.4 27.7999 230.6 28.7999 232.5 28.7999C234.3 28.7999 236.3 27.6999 238.2 25.9999L236.8 28.3999H240.6L246.4 18.2999C252.2 10.9999 254.8 11.9999 253.1 14.7999L248.2 23.3999C246.6 26.1999 247.7 28.7999 250.8 28.7999C252.8 28.7999 255 27.3999 257.2 25.4999C257 27.3999 258.2 28.7999 260.5 28.7999C262 28.7999 263.9 27.7999 265.8 26.2999C266 27.7999 267.2 28.7999 269.1 28.7999C272.2 28.7999 275.8 25.3999 279 21.7999C278.6 21.5999 277.9 20.9999 277.4 20.7999ZM199.5 6.59991C200.6 4.69991 201.9 3.7999 202.9 3.7999C208.9 3.7999 204.7 16.0999 194.8 16.0999H194L199.5 6.59991ZM191.4 35.1999C190.6 36.5999 189.3 36.3999 189.3 35.3999C189.3 34.3999 190.2 33.2999 193.1 32.1999L191.4 35.1999ZM231.1 21.3999C228.8 24.9999 226.5 26.6999 225 26.6999C224.2 26.6999 223.7 26.0999 224.6 24.5999L229.9 15.3999C231.9 11.8999 236 12.7999 234.1 16.1999L231.1 21.3999ZM267.8 21.1999C265.5 24.9999 263.2 26.6999 261.6 26.6999C260.8 26.6999 260.3 26.0999 261.2 24.5999L266.5 15.3999C268.5 11.8999 272.6 12.7999 270.7 16.1999L267.8 21.1999Z" fill="white"/>
<path d="M150.7 56.7999L150.4 57.0999C147.7 60.2999 145 62.7999 143.3 62.7999C142.5 62.7999 142 62.1999 142.9 60.6999L148.4 51.0999C150 48.1999 148.5 46.0999 146.4 46.0999C144.8 46.0999 143 46.9999 141.1 48.8999L142.5 46.3999H138.7L132.6 56.9999C132.4 56.8999 132.3 56.7999 132.1 56.6999L131.8 56.9999C130.1 58.8999 128 59.7999 126.1 59.7999L129.7 53.5999C132 49.5999 129.9 45.8999 126.3 45.8999C123.4 45.8999 121.1 47.0999 118.9 50.8999L117 54.0999L115.4 56.8999C115.3 56.7999 115.2 56.7999 115.1 56.6999L114.8 56.9999C111.7 60.5999 109 62.8999 106 64.1999L116.4 46.3999H112.6L105.9 58.0999C103 60.7999 100.7 62.2999 100 61.9999C99.1001 61.5999 100 60.1999 100.5 59.3999L107.9 46.4999H104.1L98.0001 56.9999C97.9001 56.8999 97.8001 56.8999 97.7001 56.7999L97.4001 57.0999C94.7001 60.2999 92.0001 62.7999 90.3001 62.7999C89.5001 62.7999 89.0001 62.1999 89.9001 60.6999L95.4001 51.0999C97.0001 48.1999 95.5001 46.0999 93.4001 46.0999C91.8001 46.0999 90.0001 46.9999 88.1001 48.8999L89.5001 46.3999H85.7001L79.6001 56.8999C79.5001 56.7999 79.4001 56.6999 79.2001 56.6999L78.9001 56.9999C76.2001 60.1999 73.5001 62.6999 71.8001 62.6999C71.0001 62.6999 70.5001 62.0999 71.4001 60.5999L77.5001 49.8999H75.3001C75.4001 48.2999 73.8001 46.0999 71.3001 46.0999C69.3001 46.0999 66.4001 47.6999 64.8001 50.4999L60.9001 57.2999C60.6001 57.0999 60.3001 56.8999 60.1001 56.7999L59.8001 57.0999C57.1001 60.2999 53.7001 62.7999 50.0001 62.7999C47.4001 62.7999 45.8001 60.1999 48.1001 56.2999L49.2001 54.3999C49.9001 54.4999 50.6001 54.5999 51.4001 54.5999C55.4001 54.5999 60.0001 52.4999 63.0001 47.2999C64.1001 45.3999 64.5001 43.6999 64.5001 42.1999C64.5001 38.7999 62.3001 36.4999 59.5001 36.4999C57.4001 36.4999 54.9001 37.9999 53.2001 40.8999L47.3001 51.0999C45.1001 49.8999 43.9001 47.7999 43.9001 45.6999C43.9001 43.8999 44.7001 42.1999 46.3001 40.8999L45.1001 38.6999C42.4001 40.5999 41.2001 43.1999 41.2001 45.7999C41.2001 48.7999 42.9001 51.6999 46.0001 53.2999L44.9001 55.2999C42.2001 59.8999 43.8001 64.9999 49.2001 64.9999C53.4001 64.9999 56.6001 63.0999 59.2001 60.5999C58.4001 62.9999 59.6001 64.9999 62.3001 64.9999C63.8001 64.9999 65.7001 63.9999 67.6001 62.4999C67.8001 63.9999 69.0001 64.9999 70.9001 64.9999C72.7001 64.9999 74.7001 63.8999 76.6001 62.1999L75.2001 64.5999H79.0001L84.8001 54.4999C90.6001 47.1999 93.2001 48.1999 91.5001 50.9999L86.6001 59.5999C85.0001 62.3999 86.1001 64.9999 89.2001 64.9999C91.2001 64.9999 93.5001 63.5999 95.7001 61.5999C95.2001 63.6999 96.2001 64.9999 98.1001 64.9999C99.9001 64.9999 102 63.4999 103.7 61.8999L101.6 65.4999C96.5001 66.9999 93.2001 69.0999 93.2001 71.9999C93.2001 75.5999 98.8001 76.3999 101.5 71.6999L104.4 66.6999C107.6 65.6999 110.7 63.6999 114 60.4999C113.5 65.7999 120.5 66.9999 124.8 61.5999H125.6C127 61.5999 128.9 61.0999 130.6 60.0999L128.1 64.4999H131.9L137.7 54.3999C143.5 47.0999 146.1 48.0999 144.4 50.8999L139.5 59.4999C137.9 62.2999 139 64.8999 142.1 64.8999C145.2 64.8999 148.8 61.4999 152 57.8999C151.9 57.5999 151.2 56.9999 150.7 56.7999ZM56.3001 42.5999C57.4001 40.6999 58.7001 39.7999 59.7001 39.7999C61.1001 39.7999 61.8001 40.6999 61.8001 42.0999C61.8001 45.5999 57.5001 51.9999 51.6001 51.9999H50.8001L56.3001 42.5999ZM69.7001 57.3999C67.4001 60.9999 65.1001 62.6999 63.6001 62.6999C62.8001 62.6999 62.3001 62.0999 63.2001 60.5999L68.5001 51.3999C70.5001 47.8999 74.6001 48.7999 72.7001 52.1999L69.7001 57.3999ZM98.5001 71.1999C97.7001 72.5999 96.4001 72.3999 96.4001 71.3999C96.4001 70.3999 97.3001 69.2999 100.2 68.1999L98.5001 71.1999ZM124.1 56.9999H123.9C122.7 56.9999 121.7 57.9999 121.7 59.2999C121.7 59.7999 121.8 60.1999 122.1 60.5999V60.6999C120.3 63.7999 116 63.1999 118.2 59.1999L121.1 54.1999L122.9 51.0999C125.6 46.5999 129.2 48.3999 126.9 52.2999L124.1 56.9999Z" fill="white"/>
<path d="M238.6 58.0999C238.4 57.4999 237.7 56.8999 237.2 56.7999L236.9 57.0999C235.5 58.6999 233.8 60.1999 232.3 61.1999C233.5 57.5999 233.2 51.9999 235.6 47.1999L232.8 45.6999C231.2 47.8999 227.8 52.7999 224.4 56.7999L224.1 57.0999C221.4 60.2999 218.7 62.7999 217 62.7999C216.2 62.7999 215.4 61.9999 215.4 60.1999V58.5999C218.1 58.8999 220.9 57.1999 222.7 54.0999L223.7 52.2999C227.2 46.1999 221.5 44.1999 217.6 47.7999L223 38.3999H219.2L208.4 57.1999C208.2 56.9999 207.9 56.7999 207.7 56.6999L207.4 56.9999C204.7 60.1999 201.2 62.6999 198.5 62.6999C196.2 62.6999 194.8 61.1999 196.5 58.1999L200.4 51.3999C202.6 47.5999 206.5 48.2999 204.2 52.1999L203.7 53.0999H206.8L207.3 52.1999C209.3 48.6999 207.4 46.0999 204.3 46.0999C201.2 46.0999 198.8 47.6999 197.2 50.4999L193.5 56.8999C193.4 56.8999 193.3 56.7999 193.3 56.7999L193 57.0999C190.3 60.2999 187.6 62.7999 185.9 62.7999C185.1 62.7999 184.6 62.1999 185.5 60.6999L193.6 46.4999H189.8L183.1 58.2999C180.2 60.8999 178 62.3999 177.3 62.0999C176.4 61.6999 177.3 60.2999 177.8 59.4999L185.2 46.5999H181.4L174 59.2999C173.2 59.9999 172.3 60.6999 171.6 61.2999C172.8 57.6999 172.5 52.0999 174.9 47.2999L172.1 45.7999C170.5 47.9999 161.8 59.5999 158.3 63.5999C158.6 64.0999 159.2 64.4999 159.7 64.8999C161.9 62.3999 169.1 53.0999 170.4 51.2999C168.9 55.1999 169.7 62.2999 166.1 62.2999C164.8 62.2999 164.3 60.8999 164.3 60.8999L161.9 62.0999C161.9 62.0999 162.6 65.1999 166.1 65.1999C166.5 65.1999 166.8 65.1999 167.2 65.0999H167.3C169.2 64.7999 171.1 63.9999 172.9 62.6999C172.9 64.1999 173.8 65.1999 175.4 65.1999C177.5 65.1999 179.8 63.2999 181.6 61.5999C181.2 63.5999 182.4 65.1999 184.8 65.1999C187.2 65.1999 189.8 63.2999 192.3 60.7999C192.3 63.2999 194.3 65.1999 197.4 65.1999C200.5 65.1999 203.5 63.4999 206.2 61.1999L204.1 64.8999H207.9L212.2 57.3999V60.3999C212.2 63.5999 212.8 65.2999 215.9 65.2999C219 65.2999 222.6 61.8999 225.8 58.2999C228 55.7999 229.8 53.1999 231.2 51.3999C229.7 55.2999 230.5 62.3999 226.9 62.3999C225.6 62.3999 225.1 60.9999 225.1 60.9999L222.7 62.1999C222.7 62.1999 223.4 65.2999 226.9 65.2999C227.3 65.2999 227.6 65.2999 228 65.1999H228.1C231.9 64.4999 235.8 61.3999 238.6 58.0999ZM213.4 55.0999L214.5 53.1999C218.9 47.0999 221.9 48.7999 220.5 51.0999L218.7 54.1999C217.6 56.1999 214.3 57.5999 213.4 55.0999Z" fill="white"/>
<path d="M238.5 60.6999C237.3 60.6999 236.3 61.6999 236.3 62.8999C236.3 64.0999 237.2 65.0999 238.5 65.0999C239.7 65.0999 240.7 64.1999 240.7 62.8999C240.7 61.6999 239.7 60.6999 238.5 60.6999Z" fill="white"/>
<path d="M238.7 59.1999H242.5L254.4 38.4999H250.6L238.7 59.1999Z" fill="white"/>
</svg>
