<svg aria-hidden="true" style="position: absolute; width: 0; height: 0; overflow: hidden;" version="1.1" xmlns="http://www.w3.org/2000/svg" xmlns:xlink="http://www.w3.org/1999/xlink">
<defs>
<symbol id="icon-sedona" viewBox="0 0 42 32">
<path fill="#766458" style="fill: var(--color1, #766458)" d="M15.122 6.4l-0.018 0.018c-0.128 0.137-0.274 0.201-0.411 0.201l0.256-0.448c0.165-0.283 0.009-0.558-0.247-0.558-0.21 0-0.375 0.082-0.53 0.357l-0.137 0.238-0.11 0.192-0.018 0.018c-0.201 0.229-0.393 0.411-0.512 0.411-0.064 0-0.091-0.046-0.027-0.146l0.585-1.024h0.219l0.082-0.128h-0.229l0.256-0.448h-0.274l-0.256 0.448h-0.247l-0.082 0.128h0.247l-0.549 0.951c-0.119 0.201-0.037 0.393 0.183 0.393 0.155 0 0.338-0.119 0.503-0.283 0 0.347 0.485 0.421 0.777 0.046h0.064c0.165 0 0.421-0.101 0.558-0.265 0-0.046-0.046-0.082-0.082-0.101zM14.537 6.418h-0.009c-0.091 0-0.165 0.073-0.165 0.165 0 0.037 0.009 0.064 0.027 0.091v0.009c-0.128 0.219-0.439 0.183-0.283-0.11l0.21-0.357 0.128-0.219c0.192-0.329 0.457-0.201 0.293 0.082l-0.201 0.338z"></path>
<path fill="#766458" style="fill: var(--color1, #766458)" d="M18.917 6.4l-0.018 0.018c-0.201 0.229-0.448 0.411-0.64 0.411-0.165 0-0.265-0.11-0.146-0.329l0.027-0.046c0.174 0.073 0.512 0.037 0.713-0.32l0.037-0.064c0.146-0.256 0.009-0.439-0.219-0.439-0.219 0-0.393 0.119-0.512 0.32l-0.265 0.457-0.018 0.018c-0.201 0.229-0.393 0.411-0.512 0.411-0.064 0-0.091-0.046-0.027-0.146l0.393-0.695c0.119-0.21 0.009-0.357-0.146-0.357-0.119 0-0.247 0.064-0.384 0.21l0.439-0.759h-0.274l-0.759 1.307-0.018 0.018c-0.201 0.229-0.393 0.411-0.512 0.411-0.064 0-0.091-0.046-0.027-0.146l0.585-1.024h0.219l0.082-0.128h-0.229l0.256-0.448h-0.274l-0.256 0.448h-0.247l-0.082 0.128h0.247l-0.549 0.951c-0.119 0.201-0.037 0.393 0.183 0.393 0.11 0 0.229-0.055 0.347-0.146l-0.073 0.119h0.274l0.411-0.722c0.421-0.53 0.603-0.457 0.494-0.256l-0.357 0.622c-0.119 0.201-0.037 0.393 0.183 0.393 0.165 0 0.347-0.128 0.512-0.293 0.009 0.174 0.155 0.293 0.375 0.293 0.311 0 0.622-0.238 0.841-0.503 0.009-0.055-0.037-0.091-0.073-0.11zM18.395 6.016c0.155-0.274 0.439-0.229 0.274 0.055l-0.037 0.064c-0.128 0.219-0.311 0.219-0.411 0.183l0.174-0.302z"></path>
<path fill="#766458" style="fill: var(--color1, #766458)" d="M28.891 6.4l-0.018 0.018c-0.101 0.119-0.219 0.219-0.329 0.302 0.091-0.265 0.064-0.658 0.238-1.015l-0.201-0.11c-0.11 0.155-0.357 0.512-0.613 0.805l-0.018 0.018c-0.201 0.229-0.393 0.411-0.512 0.411-0.064 0-0.091-0.046-0.027-0.146l0.585-1.024h-0.274l-0.485 0.85c-0.21 0.192-0.366 0.293-0.421 0.274-0.064-0.027 0-0.128 0.037-0.192l0.53-0.933h-0.274l-0.43 0.741-0.018 0.018c-0.128 0.137-0.274 0.201-0.411 0.201l0.256-0.448c0.165-0.283 0.009-0.558-0.247-0.558-0.21 0-0.375 0.082-0.53 0.357l-0.137 0.238-0.11 0.192-0.018 0.018c-0.201 0.229-0.448 0.411-0.64 0.411-0.165 0-0.265-0.11-0.146-0.329l0.027-0.046c0.174 0.073 0.512 0.037 0.713-0.32l0.037-0.064c0.146-0.256 0.009-0.439-0.219-0.439-0.219 0-0.393 0.119-0.512 0.32l-0.265 0.457-0.018 0.018c-0.229 0.265-0.421 0.43-0.64 0.521l0.613-1.051h-0.165c0-0.11-0.119-0.265-0.283-0.265-0.146 0-0.357 0.119-0.466 0.32l-0.265 0.457-0.018 0.018c-0.201 0.229-0.393 0.411-0.512 0.411-0.064 0-0.091-0.046-0.027-0.146l0.274-0.475c0.091-0.165 0.046-0.265-0.037-0.375l-0.155-0.183c-0.037-0.046-0.037-0.11 0.018-0.155l-0.146-0.155c-0.155 0.137-0.165 0.293-0.073 0.421l0.027 0.027c-0.119 0.174-0.283 0.402-0.466 0.613l-0.018 0.018c-0.128 0.137-0.274 0.201-0.411 0.201l0.256-0.448c0.165-0.283 0.009-0.558-0.247-0.558-0.21 0-0.375 0.082-0.53 0.357l-0.137 0.238-0.11 0.192-0.018 0.018c-0.229 0.265-0.421 0.43-0.64 0.521l0.613-1.051h-0.165c0-0.11-0.119-0.265-0.283-0.265-0.146 0-0.357 0.119-0.466 0.32l-0.384 0.667c-0.119 0.201-0.037 0.393 0.183 0.393 0.073 0 0.165-0.037 0.265-0.091l-0.073 0.128c-0.366 0.11-0.603 0.265-0.603 0.466 0 0.265 0.402 0.32 0.603-0.018l0.21-0.357c0.219-0.064 0.43-0.201 0.658-0.411 0 0.347 0.485 0.421 0.777 0.046h0.064c0.165 0 0.421-0.101 0.558-0.265 0.128-0.155 0.238-0.293 0.457-0.585l0.037 0.046c0.037 0.046 0.046 0.101 0.018 0.155l-0.293 0.503c-0.119 0.201-0.037 0.393 0.183 0.393 0.137 0 0.293-0.091 0.439-0.219 0 0.128 0.082 0.219 0.238 0.219 0.073 0 0.165-0.037 0.265-0.091l-0.064 0.11c-0.366 0.11-0.603 0.265-0.603 0.466 0 0.265 0.402 0.32 0.603-0.018l0.21-0.357c0.219-0.073 0.439-0.201 0.667-0.421 0.009 0.174 0.146 0.293 0.375 0.293 0.219 0 0.448-0.128 0.631-0.293-0.009 0.357 0.485 0.43 0.777 0.055h0.064c0.082 0 0.201-0.027 0.302-0.082-0.073 0.192-0.009 0.32 0.146 0.32 0.146 0 0.32-0.137 0.448-0.265-0.027 0.146 0.064 0.265 0.238 0.265 0.229 0 0.485-0.238 0.713-0.503 0.155-0.183 0.293-0.375 0.393-0.503-0.11 0.283-0.046 0.795-0.311 0.795-0.091 0-0.128-0.101-0.128-0.101l-0.174 0.091c0 0 0.046 0.219 0.302 0.219 0.027 0 0.046 0 0.073-0.009h0.009c0.283-0.037 0.558-0.256 0.759-0.494-0.009-0.046-0.055-0.091-0.101-0.101zM24.969 6.016c0.155-0.274 0.439-0.229 0.274 0.055l-0.037 0.064c-0.128 0.219-0.311 0.219-0.411 0.183l0.174-0.302zM19.739 7.442c-0.055 0.101-0.146 0.091-0.146 0.009 0-0.073 0.064-0.155 0.274-0.238l-0.128 0.229zM19.867 6.83c-0.064 0-0.091-0.046-0.027-0.146l0.384-0.667c0.146-0.256 0.439-0.192 0.302 0.055l-0.21 0.366c-0.165 0.265-0.338 0.393-0.448 0.393zM21.55 6.418h-0.009c-0.091 0-0.165 0.073-0.165 0.165 0 0.037 0.009 0.064 0.027 0.091v0.009c-0.128 0.219-0.439 0.183-0.283-0.11l0.21-0.357 0.128-0.219c0.192-0.329 0.457-0.201 0.293 0.082l-0.201 0.338zM23.269 7.442c-0.055 0.101-0.146 0.091-0.146 0.009 0-0.073 0.064-0.155 0.274-0.238l-0.128 0.229zM23.397 6.83c-0.064 0-0.091-0.046-0.027-0.146l0.384-0.667c0.146-0.256 0.439-0.192 0.302 0.055l-0.21 0.366c-0.165 0.265-0.338 0.393-0.448 0.393zM26.094 6.418h-0.009c-0.091 0-0.165 0.073-0.165 0.165 0 0.037 0.009 0.064 0.027 0.091v0.009c-0.128 0.219-0.439 0.183-0.283-0.11l0.21-0.357 0.128-0.219c0.192-0.329 0.457-0.201 0.293 0.082l-0.201 0.338z"></path>
<path fill="#766458" style="fill: var(--color1, #766458)" d="M11.913 6.107h-2.642v0.183h2.642v-0.183z"></path>
<path fill="#766458" style="fill: var(--color1, #766458)" d="M32.667 6.107h-2.642v0.183h2.642v-0.183z"></path>
<path fill="#81b3d3" style="fill: var(--color2, #81b3d3)" d="M14.921 0h0.704l-0.11 4.105h-1.326l-0.183-1.691-0.183 1.691h-1.335l-0.101-4.105h0.695l0.055 3.401h0.073l0.448-3.401h0.695l0.448 3.401h0.073l0.046-3.401z"></path>
<path fill="#81b3d3" style="fill: var(--color2, #81b3d3)" d="M17.829 3.401v0.713h-1.911v-4.114h1.911v0.704h-1.216v0.987h0.969v0.704h-0.969v0.997h1.216v0.009z"></path>
<path fill="#81b3d3" style="fill: var(--color2, #81b3d3)" d="M19.785 3.401v0.713h-1.673v-4.114h0.695v3.401h0.978z"></path>
<path fill="#81b3d3" style="fill: var(--color2, #81b3d3)" d="M21.266 2.597l0.704-0.165v1.243c0 0.238-0.201 0.43-0.43 0.43h-1.051c-0.238 0-0.43-0.201-0.43-0.43v-3.246c0-0.238 0.192-0.43 0.43-0.43h1.051c0.229 0 0.43 0.192 0.43 0.43v0.832l-0.704 0.165v-0.731h-0.503v2.697h0.503v-0.795z"></path>
<path fill="#81b3d3" style="fill: var(--color2, #81b3d3)" d="M23.872 0c0.229 0 0.43 0.192 0.43 0.43v3.237c0 0.238-0.201 0.43-0.43 0.43h-1.051c-0.238 0-0.43-0.201-0.43-0.43v-3.237c0-0.238 0.192-0.43 0.43-0.43h1.051zM23.598 0.704h-0.503v2.697h0.503v-2.697z"></path>
<path fill="#81b3d3" style="fill: var(--color2, #81b3d3)" d="M26.587 0h0.695v4.105h-0.695v-2.021l-0.283 1.042h-0.686l-0.274-1.042v2.021h-0.695v-4.105h0.695l0.622 1.984 0.622-1.984z"></path>
<path fill="#81b3d3" style="fill: var(--color2, #81b3d3)" d="M29.541 3.401v0.713h-1.911v-4.114h1.911v0.704h-1.216v0.987h0.969v0.704h-0.969v0.997h1.216v0.009z"></path>
<path fill="#fff" style="fill: var(--color3, #fff)" d="M4.069 14.409c-0.329-0.274-0.741-0.457-1.179-0.457-0.329 0-0.759 0.192-0.759 0.576 0 0.402 0.485 0.558 0.786 0.649l0.457 0.137c0.951 0.283 1.691 0.759 1.691 1.865 0 0.677-0.165 1.381-0.704 1.838s-1.253 0.64-1.938 0.64c-0.859 0-1.71-0.293-2.405-0.777l0.741-1.417c0.448 0.393 0.969 0.704 1.582 0.704 0.421 0 0.859-0.21 0.859-0.686 0-0.503-0.695-0.667-1.079-0.777-1.115-0.329-1.847-0.613-1.847-1.938 0-1.39 0.987-2.295 2.359-2.295 0.686 0 1.536 0.219 2.139 0.567l-0.704 1.371z"></path>
<path fill="#fff" style="fill: var(--color3, #fff)" d="M8.393 14.153v1.143h2.002v1.509h-2.002v1.179h2.121v1.509h-3.895v-6.839h3.895v1.509l-2.121-0.009z"></path>
<path fill="#fff" style="fill: var(--color3, #fff)" d="M11.831 12.654h2.523c1.902 0 3.474 1.499 3.474 3.419s-1.582 3.419-3.474 3.419h-2.523v-6.839zM13.614 17.984h0.402c1.061 0 1.966-0.585 1.966-1.911 0-1.225-0.805-1.911-1.947-1.911h-0.421v3.822z"></path>
<path fill="#fff" style="fill: var(--color3, #fff)" d="M26.231 15.945c0 2.213-1.591 3.776-3.785 3.776s-3.785-1.563-3.785-3.776c0-2.066 1.819-3.52 3.785-3.52s3.785 1.454 3.785 3.52zM20.507 15.954c0 1.179 0.869 2.039 1.929 2.039s1.929-0.859 1.929-2.039c0-0.942-0.869-1.81-1.929-1.81-1.051 0-1.929 0.869-1.929 1.81z"></path>
<path fill="#fff" style="fill: var(--color3, #fff)" d="M27.173 12.654h1.783l3.255 4.187h0.018v-4.187h1.783v6.839h-1.783l-3.255-4.197h-0.018v4.197h-1.783v-6.839z"></path>
<path fill="#fff" style="fill: var(--color3, #fff)" d="M37.239 18.304l-0.475 1.189h-1.883l2.633-6.839h1.938l2.578 6.839h-1.893l-0.448-1.189h-2.45zM38.482 14.766h-0.018l-0.731 2.176h1.481l-0.731-2.176z"></path>
<path fill="#fff" style="fill: var(--color3, #fff)" d="M9.883 26.304c0.704-0.238 0.75-1.115 0.064-1.115-0.192 0-0.421 0.137-0.576 0.402l-0.933 1.618c-0.046 0.073-0.082 0.137-0.137 0.201-0.238-0.329-0.174-0.823 0.165-1.042l-0.137-0.174c-0.731 0.466-0.512 1.801 0.704 1.801 1.033 0 1.518-1.243 0.85-1.691zM9.024 27.73c-0.21 0-0.366-0.046-0.503-0.119 0.064-0.073 0.119-0.155 0.174-0.247l0.585-1.015 0.091 0.009c0.814 0.174 0.494 1.371-0.347 1.371zM9.399 26.149l0.283-0.485c0.256-0.439 0.576-0.183 0.402 0.146-0.137 0.256-0.329 0.329-0.686 0.338z"></path>
<path fill="#fff" style="fill: var(--color3, #fff)" d="M12.818 27.429c-0.055 0.201 0.055 0.375 0.283 0.375 0.137 0 0.311-0.091 0.485-0.229 0.018 0.137 0.128 0.229 0.302 0.229 0.183 0 0.384-0.128 0.585-0.311-0.037 0.183 0.046 0.311 0.219 0.311 0.192 0 0.402-0.174 0.567-0.329-0.037 0.183 0.073 0.329 0.293 0.329 0.283 0 0.613-0.311 0.905-0.64 0-0.009-0.009-0.009-0.009-0.018 0.192-0.219 0.357-0.457 0.485-0.622-0.137 0.357-0.064 1.006-0.393 1.006-0.119 0-0.165-0.128-0.165-0.128l-0.219 0.11c0 0 0.064 0.283 0.384 0.283 0.037 0 0.064 0 0.101-0.009h0.009c0.256-0.037 0.503-0.192 0.722-0.384 0.009 0.229 0.183 0.393 0.466 0.393 0.393 0 0.786-0.311 1.070-0.64-0.027-0.046-0.082-0.101-0.128-0.119l-0.027 0.027c-0.247 0.293-0.567 0.521-0.814 0.521-0.21 0-0.338-0.137-0.183-0.411l0.037-0.064c0.219 0.091 0.64 0.046 0.905-0.402l0.046-0.082c0.183-0.32 0.009-0.558-0.274-0.558s-0.503 0.146-0.649 0.402l-0.338 0.576h-0.009l-0.027 0.027c-0.128 0.146-0.283 0.283-0.421 0.375 0.11-0.329 0.082-0.841 0.302-1.28l-0.256-0.137c-0.146 0.201-0.457 0.649-0.768 1.015l0.009 0.009-0.009 0.018c-0.247 0.293-0.494 0.521-0.649 0.521-0.073 0-0.119-0.055-0.037-0.192l0.741-1.298h-0.347l-0.613 1.079c-0.265 0.238-0.466 0.375-0.53 0.347-0.082-0.037 0-0.165 0.046-0.238l0.677-1.179h-0.347l-0.549 0.951c-0.009-0.009-0.018-0.009-0.027-0.018l-0.027 0.027c-0.247 0.293-0.494 0.521-0.649 0.521-0.073 0-0.119-0.055-0.037-0.192l0.558-0.978h-0.201c0.009-0.146-0.137-0.347-0.366-0.347-0.183 0-0.448 0.146-0.594 0.402l-0.347 0.603c-0.018-0.018-0.037-0.027-0.055-0.037l-0.027 0.027c-0.247 0.293-0.567 0.521-0.814 0.521-0.21 0-0.338-0.137-0.183-0.411l0.357-0.622c0.201-0.347 0.558-0.283 0.347 0.073l-0.046 0.082h0.283l0.046-0.082c0.183-0.32 0.009-0.558-0.274-0.558s-0.503 0.146-0.649 0.402l-0.347 0.594c-0.009-0.009-0.018-0.009-0.027-0.018l-0.027 0.027c-0.247 0.293-0.567 0.521-0.814 0.521-0.21 0-0.338-0.137-0.183-0.411l0.037-0.064c0.219 0.091 0.64 0.046 0.905-0.402l0.046-0.082c0.183-0.32 0.009-0.558-0.274-0.558s-0.503 0.146-0.649 0.402l-0.366 0.622c-0.219 0.366-0.027 0.713 0.384 0.713 0.302 0 0.613-0.183 0.859-0.421-0.009 0.238 0.174 0.421 0.466 0.421 0.293-0.018 0.576-0.183 0.823-0.393zM18.121 26.551c0.201-0.347 0.558-0.283 0.347 0.073l-0.046 0.082c-0.165 0.283-0.393 0.274-0.521 0.229l0.219-0.384zM13.166 27.401l0.485-0.841c0.183-0.32 0.558-0.238 0.384 0.073l-0.274 0.475c-0.21 0.329-0.421 0.485-0.558 0.485-0.073-0.009-0.119-0.055-0.037-0.192zM10.953 26.551c0.201-0.347 0.558-0.283 0.347 0.073l-0.046 0.082c-0.165 0.283-0.393 0.274-0.521 0.229l0.219-0.384z"></path>
<path fill="#fff" style="fill: var(--color3, #fff)" d="M22.711 27.803c0.393 0 0.786-0.311 1.070-0.64-0.027-0.046-0.082-0.101-0.128-0.119l-0.027 0.027c-0.247 0.293-0.567 0.521-0.814 0.521-0.21 0-0.338-0.137-0.183-0.411l0.037-0.064c0.219 0.091 0.64 0.046 0.905-0.402l0.046-0.082c0.183-0.32 0.009-0.558-0.274-0.558s-0.503 0.146-0.649 0.402l-0.338 0.576c0 0-0.009 0-0.009-0.009l-0.027 0.027c-0.247 0.293-0.494 0.521-0.649 0.521-0.073 0-0.119-0.055-0.037-0.192l0.503-0.878c0.146-0.265 0.009-0.457-0.183-0.457-0.146 0-0.311 0.082-0.485 0.265l0.558-0.96h-0.357l-0.978 1.691c-0.009-0.009-0.027-0.018-0.037-0.027l-0.027 0.027c-0.247 0.293-0.494 0.521-0.649 0.521-0.073 0-0.119-0.055-0.037-0.192l0.741-1.298h0.283l0.101-0.165h-0.283l0.329-0.567h-0.347l-0.329 0.567h-0.311l-0.101 0.165h0.32l-0.695 1.207c-0.146 0.256-0.046 0.494 0.238 0.494 0.174 0 0.357-0.11 0.549-0.274l-0.137 0.238h0.347l0.53-0.914c0.53-0.667 0.768-0.585 0.622-0.329l-0.448 0.786c-0.146 0.256-0.046 0.494 0.238 0.494 0.21 0 0.448-0.165 0.667-0.384 0 0.229 0.174 0.393 0.457 0.393zM22.994 26.551c0.201-0.347 0.558-0.283 0.347 0.073l-0.046 0.082c-0.165 0.283-0.393 0.274-0.521 0.229l0.219-0.384z"></path>
<path fill="#fff" style="fill: var(--color3, #fff)" d="M33.225 27.045l-0.027 0.027c-0.247 0.293-0.494 0.521-0.649 0.521-0.073 0-0.119-0.055-0.037-0.192l1.17-2.030h-0.347l-0.512 0.878c-0.064-0.101-0.174-0.183-0.32-0.183-0.183 0-0.448 0.146-0.594 0.402l-0.338 0.585c-0.009 0-0.018-0.009-0.018-0.009l-0.027 0.027c-0.247 0.293-0.494 0.521-0.649 0.521-0.073 0-0.119-0.055-0.037-0.192l0.503-0.878c0.146-0.265 0.009-0.457-0.183-0.457-0.146 0-0.311 0.082-0.485 0.256l0.128-0.229h-0.347l-0.558 0.96c-0.009-0.009-0.018-0.018-0.037-0.018l-0.027 0.027c-0.247 0.293-0.494 0.521-0.649 0.521-0.073 0-0.119-0.055-0.037-0.192l0.558-0.978h-0.174c0.009-0.146-0.137-0.347-0.366-0.347-0.183 0-0.448 0.146-0.594 0.402l-0.338 0.576-0.018 0.018c-0.247 0.293-0.494 0.521-0.649 0.521-0.073 0-0.119-0.055-0.037-0.192l0.347-0.603c0.119-0.21 0.064-0.329-0.046-0.466l-0.192-0.238c-0.046-0.064-0.046-0.137 0.018-0.201l-0.183-0.201c-0.201 0.174-0.21 0.375-0.091 0.53l0.027 0.037c-0.155 0.219-0.357 0.512-0.585 0.777 0.009 0.009 0.018 0.018 0.027 0.027-0.283 0.329-0.53 0.539-0.805 0.658l0.439-0.75h-0.338l-0.037 0.064c-0.183 0.32-0.393 0.558-0.667 0.558-0.238 0-0.283-0.238-0.073-0.594l0.101-0.174c0.064 0.009 0.128 0.018 0.201 0.018 1.234 0 1.829-1.655 0.741-1.655-0.192 0-0.421 0.137-0.576 0.402l-0.539 0.933c-0.201-0.11-0.311-0.302-0.311-0.494 0-0.165 0.073-0.32 0.219-0.439l-0.11-0.201c-0.247 0.174-0.357 0.411-0.357 0.649 0 0.274 0.155 0.539 0.439 0.686l-0.101 0.183c-0.247 0.421-0.201 0.887 0.293 0.887 0.146 0 0.274-0.046 0.375-0.11l-0.091 0.155c-0.466 0.146-0.759 0.329-0.759 0.594 0 0.329 0.512 0.402 0.759-0.027l0.265-0.457c0.357-0.11 0.713-0.357 1.097-0.805-0.009-0.009-0.009-0.018-0.018-0.037 0.155-0.183 0.283-0.357 0.549-0.713l0.046 0.055c0.046 0.055 0.064 0.128 0.018 0.201l-0.366 0.64c-0.146 0.256-0.046 0.494 0.238 0.494 0.174 0 0.366-0.11 0.549-0.274 0 0.155 0.101 0.274 0.302 0.274 0.137 0 0.311-0.091 0.485-0.229 0.018 0.137 0.128 0.229 0.302 0.229 0.165 0 0.347-0.101 0.521-0.256l-0.128 0.219h0.347l0.53-0.923c0.53-0.667 0.768-0.576 0.613-0.32l-0.448 0.786c-0.146 0.256-0.046 0.494 0.238 0.494 0.183 0 0.384-0.128 0.585-0.302-0.018 0.174 0.091 0.302 0.302 0.302 0.137 0 0.311-0.091 0.485-0.229 0.018 0.137 0.128 0.229 0.302 0.229 0.283 0 0.613-0.311 0.905-0.64-0.037-0.018-0.101-0.073-0.146-0.091zM26.103 25.746c0.101-0.174 0.219-0.256 0.311-0.256 0.549 0 0.165 1.125-0.741 1.125h-0.073l0.503-0.869zM25.362 28.361c-0.073 0.128-0.192 0.11-0.192 0.018s0.082-0.192 0.347-0.293l-0.155 0.274zM28.992 27.099c-0.21 0.329-0.421 0.485-0.558 0.485-0.073 0-0.119-0.055-0.037-0.192l0.485-0.841c0.183-0.32 0.558-0.238 0.384 0.073l-0.274 0.475zM32.347 27.081c-0.21 0.347-0.421 0.503-0.567 0.503-0.073 0-0.119-0.055-0.037-0.192l0.485-0.841c0.183-0.32 0.558-0.238 0.384 0.073l-0.265 0.457z"></path>
<path fill="#fff" style="fill: var(--color3, #fff)" d="M21.641 30.336l-0.027 0.027c-0.247 0.293-0.494 0.521-0.649 0.521-0.073 0-0.119-0.055-0.037-0.192l0.503-0.878c0.146-0.265 0.009-0.457-0.183-0.457-0.146 0-0.311 0.082-0.485 0.256l0.128-0.229h-0.347l-0.558 0.969c-0.018-0.009-0.027-0.018-0.046-0.027l-0.027 0.027c-0.155 0.174-0.347 0.256-0.521 0.256l0.329-0.567c0.21-0.366 0.018-0.704-0.311-0.704-0.265 0-0.475 0.11-0.677 0.457l-0.174 0.293-0.146 0.256c-0.009-0.009-0.018-0.009-0.027-0.018l-0.027 0.027c-0.283 0.329-0.53 0.539-0.805 0.658l0.951-1.627h-0.347l-0.613 1.070c-0.265 0.247-0.475 0.384-0.539 0.357-0.082-0.037 0-0.165 0.046-0.238l0.677-1.179h-0.347l-0.558 0.96c-0.009-0.009-0.018-0.009-0.027-0.018l-0.027 0.027c-0.247 0.293-0.494 0.521-0.649 0.521-0.073 0-0.119-0.055-0.037-0.192l0.503-0.878c0.146-0.265 0.009-0.457-0.183-0.457-0.146 0-0.311 0.082-0.485 0.256l0.128-0.229h-0.347l-0.558 0.96c-0.009-0.009-0.018-0.018-0.037-0.018l-0.027 0.027c-0.247 0.293-0.494 0.521-0.649 0.521-0.073 0-0.119-0.055-0.037-0.192l0.558-0.978h-0.201c0.009-0.146-0.137-0.347-0.366-0.347-0.183 0-0.448 0.146-0.594 0.402l-0.357 0.622c-0.027-0.018-0.055-0.037-0.073-0.046l-0.027 0.027c-0.247 0.293-0.558 0.521-0.896 0.521-0.238 0-0.384-0.238-0.174-0.594l0.101-0.174c0.064 0.009 0.128 0.018 0.201 0.018 0.366 0 0.786-0.192 1.061-0.667 0.101-0.174 0.137-0.329 0.137-0.466 0-0.311-0.201-0.521-0.457-0.521-0.192 0-0.421 0.137-0.576 0.402l-0.539 0.933c-0.201-0.11-0.311-0.302-0.311-0.494 0-0.165 0.073-0.32 0.219-0.439l-0.11-0.201c-0.247 0.174-0.357 0.411-0.357 0.649 0 0.274 0.155 0.539 0.439 0.686l-0.101 0.183c-0.247 0.421-0.101 0.887 0.393 0.887 0.384 0 0.677-0.174 0.914-0.402-0.073 0.219 0.037 0.402 0.283 0.402 0.137 0 0.311-0.091 0.485-0.229 0.018 0.137 0.128 0.229 0.302 0.229 0.165 0 0.347-0.101 0.521-0.256l-0.128 0.219h0.347l0.53-0.923c0.53-0.667 0.768-0.576 0.613-0.32l-0.448 0.786c-0.146 0.256-0.046 0.494 0.238 0.494 0.183 0 0.393-0.128 0.594-0.311-0.046 0.192 0.046 0.311 0.219 0.311 0.165 0 0.357-0.137 0.512-0.283l-0.192 0.329c-0.466 0.137-0.768 0.329-0.768 0.594 0 0.329 0.512 0.402 0.759-0.027l0.265-0.457c0.293-0.091 0.576-0.274 0.878-0.567-0.046 0.485 0.594 0.594 0.987 0.101h0.073c0.128 0 0.302-0.046 0.457-0.137l-0.229 0.402h0.347l0.53-0.923c0.53-0.667 0.768-0.576 0.613-0.32l-0.448 0.786c-0.146 0.256-0.046 0.494 0.238 0.494s0.613-0.311 0.905-0.64c-0.009-0.027-0.073-0.082-0.119-0.101zM13.010 29.038c0.101-0.174 0.219-0.256 0.311-0.256 0.128 0 0.192 0.082 0.192 0.21 0 0.32-0.393 0.905-0.933 0.905h-0.073l0.503-0.859zM14.235 30.391c-0.21 0.329-0.421 0.485-0.558 0.485-0.073 0-0.119-0.055-0.037-0.192l0.485-0.841c0.183-0.32 0.558-0.238 0.384 0.073l-0.274 0.475zM16.869 31.653c-0.073 0.128-0.192 0.11-0.192 0.018s0.082-0.192 0.347-0.293l-0.155 0.274zM19.209 30.354h-0.018c-0.11 0-0.201 0.091-0.201 0.21 0 0.046 0.009 0.082 0.037 0.119v0.009c-0.165 0.283-0.558 0.229-0.357-0.137l0.43-0.741c0.247-0.411 0.576-0.247 0.366 0.11l-0.256 0.43z"></path>
<path fill="#fff" style="fill: var(--color3, #fff)" d="M29.678 30.455c-0.018-0.055-0.082-0.11-0.128-0.119l-0.027 0.027c-0.128 0.146-0.283 0.283-0.421 0.375 0.11-0.329 0.082-0.841 0.302-1.28l-0.256-0.137c-0.146 0.201-0.457 0.649-0.768 1.015l-0.027 0.027c-0.247 0.293-0.494 0.521-0.649 0.521-0.073 0-0.146-0.073-0.146-0.238v-0.146c0.247 0.027 0.503-0.128 0.667-0.411l0.091-0.165c0.32-0.558-0.201-0.741-0.558-0.411l0.494-0.859h-0.347l-0.987 1.719c-0.018-0.018-0.046-0.037-0.064-0.046l-0.027 0.027c-0.247 0.293-0.567 0.521-0.814 0.521-0.21 0-0.338-0.137-0.183-0.411l0.357-0.622c0.201-0.347 0.558-0.283 0.347 0.073l-0.046 0.082h0.283l0.046-0.082c0.183-0.32 0.009-0.558-0.274-0.558s-0.503 0.146-0.649 0.402l-0.338 0.585c-0.009 0-0.018-0.009-0.018-0.009l-0.027 0.027c-0.247 0.293-0.494 0.521-0.649 0.521-0.073 0-0.119-0.055-0.037-0.192l0.741-1.298h-0.347l-0.613 1.079c-0.265 0.238-0.466 0.375-0.53 0.347-0.082-0.037 0-0.165 0.046-0.238l0.677-1.179h-0.347l-0.677 1.161c-0.073 0.064-0.155 0.128-0.219 0.183 0.11-0.329 0.082-0.841 0.302-1.28l-0.256-0.137c-0.146 0.201-0.942 1.262-1.262 1.627 0.027 0.046 0.082 0.082 0.128 0.119 0.201-0.229 0.859-1.079 0.978-1.243-0.137 0.357-0.064 1.006-0.393 1.006-0.119 0-0.165-0.128-0.165-0.128l-0.219 0.11c0 0 0.064 0.283 0.384 0.283 0.037 0 0.064 0 0.101-0.009h0.009c0.174-0.027 0.347-0.101 0.512-0.219 0 0.137 0.082 0.229 0.229 0.229 0.192 0 0.402-0.174 0.567-0.329-0.037 0.183 0.073 0.329 0.293 0.329s0.457-0.174 0.686-0.402c0 0.229 0.183 0.402 0.466 0.402s0.558-0.155 0.805-0.366l-0.192 0.338h0.347l0.393-0.686v0.274c0 0.293 0.055 0.448 0.338 0.448s0.613-0.311 0.905-0.64c0.201-0.229 0.366-0.466 0.494-0.631-0.137 0.357-0.064 1.006-0.393 1.006-0.119 0-0.165-0.128-0.165-0.128l-0.219 0.11c0 0 0.064 0.283 0.384 0.283 0.037 0 0.064 0 0.101-0.009h0.009c0.347-0.064 0.704-0.347 0.96-0.649zM27.374 30.181l0.101-0.174c0.402-0.558 0.677-0.402 0.549-0.192l-0.165 0.283c-0.101 0.183-0.402 0.311-0.485 0.082z"></path>
<path fill="#fff" style="fill: var(--color3, #fff)" d="M29.669 30.693c-0.11 0-0.201 0.091-0.201 0.201s0.082 0.201 0.201 0.201c0.11 0 0.201-0.082 0.201-0.201 0-0.11-0.091-0.201-0.201-0.201z"></path>
<path fill="#fff" style="fill: var(--color3, #fff)" d="M29.687 30.555h0.347l1.088-1.893h-0.347l-1.088 1.893z"></path>
<path fill="#fff" style="fill: var(--color3, #fff)" d="M7.351 25.381c0 0.027-0.009 0.055-0.018 0.082s-0.027 0.055-0.046 0.073c-0.018 0.018-0.046 0.037-0.073 0.055-0.027 0.009-0.064 0.018-0.101 0.018-0.046 0-0.082-0.009-0.119-0.027s-0.073-0.037-0.101-0.064c-0.027-0.027-0.037-0.055-0.055-0.091-0.009-0.037-0.018-0.073-0.018-0.119 0-0.082 0.018-0.146 0.046-0.219 0.027-0.064 0.064-0.128 0.119-0.174 0.018-0.018 0.046-0.046 0.073-0.064s0.055-0.037 0.082-0.046c0.027-0.009 0.046-0.027 0.064-0.037s0.027-0.009 0.037-0.018l0.128 0.183c-0.018 0.009-0.046 0.018-0.073 0.037-0.027 0.009-0.055 0.027-0.082 0.046s-0.046 0.046-0.064 0.073c-0.018 0.027-0.027 0.055-0.027 0.091 0.064 0 0.11 0.018 0.155 0.055 0.055 0.027 0.073 0.082 0.073 0.146zM8.073 25.381c0 0.027-0.009 0.055-0.018 0.082s-0.027 0.055-0.046 0.073c-0.018 0.018-0.046 0.037-0.073 0.055-0.027 0.009-0.064 0.018-0.101 0.018-0.046 0-0.082-0.009-0.119-0.027s-0.073-0.037-0.101-0.064c-0.018-0.027-0.037-0.055-0.055-0.091-0.009-0.037-0.018-0.073-0.018-0.119 0-0.082 0.018-0.146 0.046-0.219 0.027-0.064 0.064-0.128 0.119-0.174 0.018-0.018 0.046-0.046 0.073-0.064s0.055-0.037 0.082-0.046c0.027-0.009 0.046-0.027 0.064-0.037s0.027-0.009 0.037-0.018l0.128 0.183c-0.018 0.009-0.046 0.018-0.073 0.037-0.027 0.009-0.055 0.027-0.082 0.046s-0.046 0.046-0.064 0.073c-0.018 0.027-0.027 0.055-0.027 0.091 0.064 0 0.11 0.018 0.155 0.055 0.046 0.027 0.073 0.082 0.073 0.146z"></path>
<path fill="#fff" style="fill: var(--color3, #fff)" d="M32.311 30.766c0-0.027 0.009-0.055 0.018-0.082s0.027-0.055 0.046-0.073c0.018-0.018 0.046-0.037 0.073-0.055 0.027-0.009 0.064-0.018 0.101-0.018 0.046 0 0.082 0.009 0.119 0.027s0.073 0.037 0.101 0.064c0.027 0.027 0.037 0.055 0.055 0.091 0.009 0.037 0.018 0.073 0.018 0.119 0 0.082-0.018 0.146-0.046 0.219-0.027 0.064-0.064 0.128-0.119 0.174-0.018 0.018-0.046 0.046-0.073 0.064s-0.055 0.037-0.082 0.046c-0.027 0.009-0.046 0.027-0.064 0.037s-0.027 0.009-0.037 0.018l-0.128-0.183c0.018-0.009 0.046-0.018 0.073-0.037 0.027-0.009 0.055-0.027 0.082-0.046s0.046-0.046 0.064-0.073c0.018-0.027 0.027-0.055 0.027-0.091-0.064 0-0.11-0.018-0.155-0.055-0.046-0.027-0.073-0.082-0.073-0.146zM31.598 30.766c0-0.027 0.009-0.055 0.018-0.082s0.027-0.055 0.046-0.073c0.018-0.018 0.046-0.037 0.073-0.055 0.027-0.009 0.064-0.018 0.101-0.018 0.046 0 0.082 0.009 0.119 0.027s0.073 0.037 0.101 0.064c0.018 0.027 0.037 0.055 0.055 0.091 0.009 0.037 0.018 0.073 0.018 0.119 0 0.082-0.018 0.146-0.046 0.219-0.027 0.064-0.064 0.128-0.119 0.174-0.018 0.018-0.046 0.046-0.073 0.064s-0.055 0.037-0.082 0.046c-0.027 0.009-0.046 0.027-0.064 0.037s-0.027 0.009-0.037 0.018l-0.128-0.183c0.027-0.009 0.046-0.018 0.073-0.037 0.027-0.009 0.055-0.027 0.082-0.046s0.046-0.046 0.064-0.073c0.018-0.027 0.027-0.055 0.027-0.091-0.064 0-0.11-0.018-0.155-0.055-0.055-0.027-0.073-0.082-0.073-0.146z"></path>
</symbol>
<symbol id="icon-facebook" viewBox="0 0 15 32">
<path d="M10.611 5.726c1.347 0 2.695 0 4.042 0 0-1.853 0-3.705 0-5.726-1.684 0-3.2 0-4.884 0-5.221 0.337-7.242 4.042-6.568 10.274h-3.2v5.895h3.368c0 5.221 0 10.442 0 15.663 2.189 0 4.379 0 6.4 0 0-5.221 0-10.442 0-15.663h4.884v-5.895h-4.884c0-1.684 0-4.042 0.842-4.547z"></path>
</symbol>
<symbol id="icon-icon-burgersvg" viewBox="0 0 36 32">
<path d="M33.345 21.333h-31.351c-1.113 0-1.994 0.928-1.994 1.994v1.623c0 1.067 0.881 1.948 1.994 1.948h0.464v0.464c0 2.551 2.087 4.591 4.591 4.591h21.241c2.551 0 4.591-2.087 4.591-4.591v-0.464h0.464c1.067 0 1.994-0.881 1.994-1.994v-1.623c0-1.020-0.881-1.948-1.994-1.948zM31.536 27.362c0 1.762-1.438 3.2-3.2 3.2h-21.333c-1.762 0-3.2-1.438-3.2-3.2v-0.464h27.733v0.464zM33.948 24.904c0 0.325-0.278 0.603-0.603 0.603h-31.351c-0.325 0-0.603-0.278-0.603-0.603v-1.623c0-0.278 0.278-0.557 0.603-0.557h31.397c0.325 0 0.603 0.278 0.603 0.603v1.577h-0.046z"></path>
<path d="M7.513 17.577l2.504 1.855 2.551-1.855 2.551 1.855 2.551-1.855 2.504 1.855 2.551-1.855 2.551 1.855 2.551-1.855 2.551 1.855 2.922-2.18-0.788-1.113-2.133 1.53-2.551-1.855-2.551 1.855-2.551-1.855-2.551 1.855-2.504-1.855-2.551 1.855-2.551-1.855-2.551 1.855-2.504-1.855-2.551 1.855-2.133-1.53-0.835 1.113 2.968 2.18 2.551-1.855z"></path>
<path d="M32.881 14.423c0-0.278 0.046-1.206 0-1.391-0.325-7.235-7.003-13.032-15.212-13.032s-14.933 5.797-15.258 13.032c0 0.185 0 1.113 0 1.391h30.47zM17.67 1.391c7.42 0 13.542 5.194 13.82 11.641h-27.687c0.325-6.446 6.446-11.641 13.867-11.641z"></path>
<path d="M17.67 7.884c0.512 0 0.928-0.415 0.928-0.928s-0.415-0.928-0.928-0.928c-0.512 0-0.928 0.415-0.928 0.928s0.415 0.928 0.928 0.928z"></path>
<path d="M13.959 5.612c0.512 0 0.928-0.415 0.928-0.928s-0.415-0.928-0.928-0.928c-0.512 0-0.928 0.415-0.928 0.928s0.415 0.928 0.928 0.928z"></path>
<path d="M21.38 5.612c0.512 0 0.928-0.415 0.928-0.928s-0.415-0.928-0.928-0.928c-0.512 0-0.928 0.415-0.928 0.928s0.415 0.928 0.928 0.928z"></path>
</symbol>
<symbol id="icon-icon-giftsvg" viewBox="0 0 27 32">
<path d="M25.347 9.315h-10.274c5.726-2.863 6.189-4.674 5.979-5.684-0.463-1.642-2.358-2.905-4.126-2.232-2.316 0.884-2.947 4.337-3.579 6.821-0.8-2.526-1.558-5.726-3.368-7.368-0.505-0.463-1.263-0.926-2.4-0.842-1.684 0.168-4.084 2.232-3.074 4.547 0.926 2.232 4 3.663 6.063 4.8h-9.389c-0.674 0-1.179 0.547-1.179 1.179v4.716c0 0.674 0.547 1.179 1.179 1.179h0.126v15.158h24v-15.158h0.042c0.674 0 1.179-0.547 1.179-1.179v-4.716c0-0.674-0.547-1.221-1.179-1.221zM17.6 2.452c0.884-0.126 2.063 0.547 2.189 1.347 0.168 1.137-1.389 2.189-2.105 2.653-1.053 0.716-2.063 1.095-3.032 1.684 0.337-1.558 1.053-5.432 2.947-5.684zM8.084 6.578c-0.926-0.632-2.695-1.853-2.653-3.242 0.042-1.516 2.4-2.737 3.663-1.6 1.6 1.389 2.358 4.632 2.947 6.905-1.347-0.674-2.611-1.179-3.958-2.063zM10.568 30.326h-8.042v-13.895h8.042v13.895zM10.568 15.168h-9.305v-4.589h9.305v4.589zM14.779 30.326h-2.989v-19.747h2.989v19.747zM24.042 30.326h-8v-13.895h8.042v13.895h-0.042zM25.263 15.168h-9.221v-4.589h9.221v4.589z"></path>
</symbol>
<symbol id="icon-icon-housesvg" viewBox="0 0 33 32">
<path d="M12.931 28.625h7.014v-10.477h-7.014v10.477zM18.674 27.353h-4.471v-7.934h4.427v7.934h0.044z"></path>
<path d="M31.825 17.271l0.921-0.921-4.34-4.34v-11.836h-6.049v5.786l-6.005-5.962-16.351 16.395 0.921 0.921 3.419-3.419v16.57h-1.71v1.271h28.011v-1.271h-2.236v-16.614l3.419 3.419zM23.627 1.49h3.463v9.249l-3.463-3.463v-5.786zM27.134 30.422h-21.479v-17.841l10.696-10.74 10.74 10.74v17.841h0.044z"></path>
<path d="M13.063 11.923c0 1.885 1.534 3.419 3.375 3.419 1.885 0 3.419-1.534 3.419-3.419s-1.534-3.375-3.419-3.375c-1.885 0-3.375 1.49-3.375 3.375zM16.438 9.732c1.184 0 2.192 0.964 2.192 2.192 0 1.184-0.964 2.192-2.192 2.192-1.184 0-2.192-0.964-2.192-2.192 0-1.184 1.008-2.192 2.192-2.192z"></path>
<path d="M8.723 18.148h-1.315v1.71h1.315v-1.71z"></path>
<path d="M11.31 18.148h-1.315v1.71h1.315v-1.71z"></path>
<path d="M8.723 20.778h-1.315v1.71h1.315v-1.71z"></path>
<path d="M11.31 20.778h-1.315v1.71h1.315v-1.71z"></path>
<path d="M22.707 18.148h-1.315v1.71h1.315v-1.71z"></path>
<path d="M25.337 18.148h-1.315v1.71h1.315v-1.71z"></path>
<path d="M22.707 20.778h-1.315v1.71h1.315v-1.71z"></path>
<path d="M25.337 20.778h-1.315v1.71h1.315v-1.71z"></path>
</symbol>
<symbol id="icon-logotype-desktopsvg" viewBox="0 0 62 32">
<path fill="#81b3d3" style="fill: var(--color1, #81b3d3)" d="M61.559 0h-61.559l26.557 29.856c2.342 2.606 6.136 2.606 8.478 0l26.524-29.856z"></path>
<path fill="#23a9e1" style="fill: var(--color2, #23a9e1)" d="M14.252 0.231l16.363 19.266 16.264-19.134-32.627-0.132z"></path>
<path fill="#fff" style="fill: var(--color3, #fff)" d="M40.247 5.707c-1.682 0-3.332 0.033-5.014 0.033 1.979-2.276 2.87-2.045 5.014-0.033z"></path>
<path fill="#fff" style="fill: var(--color3, #fff)" d="M26.656 7.489c2.936 0 5.872 0 8.808 0-0.66-0.396-2.21-2.342-3.068-1.617-0.066 0.066-2.474-2.936-4.058-1.485-1.386 1.254-2.012-0.165-3.596 0.825-1.748 1.188 1.056 1.88 1.913 2.276z"></path>
<path fill="#491213" style="fill: var(--color4, #491213)" d="M30.713 0h-16.792v7.423l16.693 20.289 0.099-0.132 16.726-19.926v-7.654h-16.726zM18.111 0.594h1.814v5.674l-1.814-2.144v-3.53zM17.847 3.827l-1.649-1.946v-1.287h1.649v3.233zM24.214 2.936l-1.88-2.342h1.88v2.342zM22.037 4.19l-1.847-3.596h1.847v3.596zM20.157 1.122l1.814 3.53c-0.924 0.693-1.55 1.32-1.814 1.617v-5.146zM22.301 0.957l1.847 2.276c-0.363 0.198-0.726 0.429-1.023 0.627s-0.561 0.396-0.825 0.594v-3.497zM24.478 0.891l1.584 1.386c-0.561 0.231-1.089 0.495-1.584 0.759v-2.144zM26.326 2.177l-1.781-1.583h1.979v1.518c-0.099 0-0.132 0.033-0.198 0.066zM32.627 0.594h1.65l-1.65 0.792v-0.792zM30.713 0.594h1.452l-1.452 0.693v-0.693zM30.416 1.254l-1.386-0.66h1.386v0.66zM28.602 1.419l-1.682-0.825h1.682v0.825zM26.755 0.792l1.551 0.759c-0.528 0.132-1.056 0.264-1.551 0.429v-1.188zM28.866 0.792l1.122 0.528c-0.396 0.033-0.759 0.066-1.155 0.132v-0.66h0.033zM32.297 0.825v0.627c-0.363-0.066-0.726-0.099-1.122-0.132l1.122-0.495zM34.441 0.792v1.221c-0.495-0.165-1.023-0.33-1.584-0.462l1.584-0.759zM34.672 0.594h1.946l-1.781 1.583c-0.066-0.033-0.099-0.033-0.165-0.066v-1.518zM39.159 0.594h1.847l-1.847 3.596v-3.596zM36.981 0.594h1.88l-1.88 2.309v-2.309zM36.718 0.891v2.144c-0.495-0.264-1.023-0.528-1.584-0.759l1.584-1.386zM38.895 0.957v3.464c-0.231-0.165-0.495-0.33-0.759-0.528-0.33-0.231-0.726-0.462-1.122-0.693l1.88-2.243zM41.006 1.122v5.014c-0.363-0.33-0.957-0.891-1.814-1.518l1.814-3.497zM41.27 6.4v-5.806h1.814v3.761l-1.814 2.045c0.033 0.033 0 0.033 0 0zM43.348 0.594h1.65v1.55l-1.65 1.913v-3.464zM15.967 0.594v0.957l-0.825-0.957h0.825zM20.19 6.598l0.033 0.033c0 0 1.188-1.287 3.035-2.507 1.748-1.155 4.388-2.507 7.357-2.474 2.936 0 5.641 1.386 7.357 2.54 1.847 1.221 3.068 2.474 3.101 2.507l-1.287 1.485c-2.276 0.297-3.926 2.012-6.136 1.649-1.122-0.198-1.155-0.825-1.485-1.485-0.231-0.495-0.627-0.429-1.155-0.627-0.462-0.198-0.759-0.561-1.715-0.363-0.825 0.198-0.924 1.485-1.979 1.419-0.561-0.033-0.594-0.825-1.386-1.814-2.078-2.507-4.025-2.144-5.344 0.165l9.996 11.843-10.392-12.371zM45.229 1.814v-1.221h1.056l-1.056 1.221z"></path>
<path fill="#23a9e1" style="fill: var(--color2, #23a9e1)" d="M29.262 23.39l1.353-2.144 1.32 2.144-1.32 2.144-1.353-2.144z"></path>
<path fill="#fff" style="fill: var(--color3, #fff)" d="M21.608 10.656c0.165 0.198 0.297 0.429 0.264 0.693-0.033 0.198-0.297 0.528-0.099 0.594 0.231-0.297 0.495-0.627 0.726-0.924-0.198-0.066-1.781-1.913-1.781-2.144-0.363 0.198-0.693 0.396-1.056 0.561 0.066 0.231 0.429 0 0.627 0 0.264 0.033 0.462 0.198 0.66 0.396-0.561 0.462-1.946 1.649-2.111 1.682-0.066 0-0.363-0.198-0.363-0.033 0 0.099 0.297 0.33 0.33 0.396 0.231 0.297 0.495 0.594 0.726 0.891 0.198-0.099-0.033-0.231 0.066-0.396 0.099-0.132 1.616-1.419 2.012-1.715z"></path>
<path fill="#fff" style="fill: var(--color3, #fff)" d="M19.86 8.346c0.132-0.033 0.198 0.132 0.33-0.033-0.264-0.33-0.528-0.627-0.792-0.957-0.132-0.132-0.264-0.297-0.231 0 0.033 0.198-2.012 1.88-2.144 1.913-0.165 0.066-0.264-0.132-0.363 0.033 0.231 0.297 0.495 0.561 0.726 0.858 0.066 0.099 0.165 0.198 0.231 0.297 0.099 0.099 0.066-0.231 0.066-0.198-0.033-0.165 0.165-0.297 0.297-0.396 0.495-0.429 1.748-1.518 1.88-1.518z"></path>
<path fill="#fff" style="fill: var(--color3, #fff)" d="M16.957 8.050c-0.594 0.165-1.221-0.066-1.386-0.66s0.198-1.254 0.693-1.583c0.462-0.33 1.188-0.33 1.452 0.264 0.099 0.264 0.066 0.561-0.033 0.825-0.066 0.165-0.198 0.33 0.033 0.429 0.297-0.363 0.561-0.726 0.858-1.089-0.363-0.198-0.495-0.561-0.759-0.858-0.297-0.363-0.693-0.693-1.155-0.759-0.957-0.132-1.847 0.858-1.913 1.715-0.033 0.495 0.132 0.924 0.396 1.32 0.264 0.33 0.627 0.528 0.792 0.924 0.099 0.033 0.891-0.33 1.089-0.429-0.033-0.033-0.033-0.066-0.066-0.099 0 0-0.231 0.066 0 0z"></path>
<path fill="#fff" style="fill: var(--color3, #fff)" d="M29.922 20.058c-0.396-0.264-1.32-1.55-1.518-1.748-0.033-0.033-0.066-0.099-0.099-0.132 0 0-0.099 0.066-0.066 0.066-0.066 0.033 0.033 0.198-0.033 0.297-0.264 0.396-1.913 1.649-1.979 1.715-0.198 0.132-0.396-0.066-0.495 0.099 0.231 0.297 0.924 1.155 0.99 1.188 0.165 0.033 0.033-0.264 0.066-0.33 0.033-0.132 0.858-0.792 1.155-1.056 0.099-0.099 0.231 0.132 0.297 0.231 0.099 0.165 0.165 0.33 0.099 0.528-0.033 0.132-0.231 0.297-0.099 0.396 0.198-0.231 0.792-0.924 0.858-0.99 0.099-0.099-0.198 0-0.165-0.033-0.132 0.066-0.231 0.066-0.363 0-0.033-0.033-0.363-0.363-0.33-0.396 0.132-0.132 0.33-0.33 0.495-0.363 0.297-0.066 0.528 0.495 0.561 0.693s0.033 0.396-0.033 0.594c-0.033 0.132-0.165 0.231 0 0.297 0.231-0.33 0.462-0.627 0.693-0.957 0.066-0.066 0-0.099-0.033-0.099 0.066 0-0.033-0.033 0 0z"></path>
<path fill="#fff" style="fill: var(--color3, #fff)" d="M26.557 18.672c0.726-0.627 0.825-1.682 0.264-2.408-0.627-0.825-1.781-1.023-2.573-0.363-0.726 0.627-0.825 1.65-0.264 2.408 0.66 0.891 1.715 0.99 2.573 0.363 0.396-0.297-0.033 0.033 0 0zM26.392 17.122c-0.198 0.495-0.726 1.023-1.221 1.221-0.594 0.231-1.023-0.264-0.792-0.858 0.231-0.495 0.726-1.023 1.221-1.221 0.627-0.231 1.023 0.297 0.792 0.858 0.033-0.066-0.132 0.297 0 0z"></path>
<path fill="#fff" style="fill: var(--color3, #fff)" d="M24.445 13.856c0.165 0.033 0.297 0.165 0.429 0-0.231-0.297-0.495-0.594-0.726-0.858-0.198 0.099 0 0.165-0.066 0.33-0.066 0.132-0.858 0.264-1.056 0.297 0.066-0.198 0.297-0.858 0.396-0.924 0.165-0.132 0.297 0.132 0.429-0.033-0.297-0.363-0.594-0.726-0.891-1.089-0.099-0.132-0.198-0.33-0.33-0.231 0 0 0 0.495-0.033 0.561s-0.297 1.188-0.627 1.485c-0.165 0.132-0.726 0.627-0.891 0.693s-0.264-0.198-0.396 0c0.264 0.33 0.561 0.66 0.825 0.99 0.033 0.033 0.198 0.297 0.264 0.297 0.165 0.033 0.033-0.297 0.033-0.363 0.066-0.132 0.825-0.891 1.155-0.957 0.396-0.066 0.99-0.231 1.485-0.198 0.099 0.033-0.132 0 0 0z"></path>
<path fill="#dc6243" style="fill: var(--color5, #dc6243)" d="M22.367 7.555c-1.32-0.066-0.792-1.32 0.132-1.583 0.858-0.264 2.672 0.561 3.233 1.122-0.924 0.297-2.111 0.231-3.101 0.297-0.066-1.056-0.33-0.693-0.264 0.165z"></path>
<path fill="#dc6243" style="fill: var(--color5, #dc6243)" d="M25.501 11.678c-2.837-0.033-0.924-4.388 0.033-4.124 1.122 0.363 0.99 4.157-0.033 4.124z"></path>
<path fill="#dc6243" style="fill: var(--color5, #dc6243)" d="M27.513 10.26c-0.264 0.825-0.792 0.99-0.726-0.033 0.066-1.155 0.825-0.891 1.616-1.32 0.66-0.363 1.023-1.715 2.177-0.924 0.528 0.363 1.122 0.066 1.287 0.594 0-0.033-1.485 3.398-0.66 3.398-1.649 0-0.924-1.946-0.297-3.266-0.594 0.297-1.584 2.21-0.792 2.507-0.429 0.561-1.715 1.287-2.375 0.759-0.495-0.363-0.231-1.056-0.231-1.715z"></path>
<path fill="#dc6243" style="fill: var(--color5, #dc6243)" d="M28.866 13.427c-1.155 0.33-2.672-0.396-0.825-0.759 1.155-0.231 2.375 0.231 0.825 0.759 0.033 0-0.033 0 0 0z"></path>
<path fill="#dc6243" style="fill: var(--color5, #dc6243)" d="M30.318 13.394c-0.231-0.561 0.198-1.188 0.891-0.726 0.594 0.396-0.297 1.023-0.891 0.726z"></path>
<path fill="#dc6243" style="fill: var(--color5, #dc6243)" d="M29.328 14.911c-0.792-0.231-3.464-0.198-1.715-0.924 0.561-0.198 3.365 0.066 1.715 0.924z"></path>
<path fill="#dc6243" style="fill: var(--color5, #dc6243)" d="M32.792 16c-0.462-0.396-0.957-0.429-1.386 0-0.594-1.089-2.738-0.726-3.761-0.891 0.528 1.353 4.882 1.617 5.146 0.891z"></path>
<path fill="#dc6243" style="fill: var(--color5, #dc6243)" d="M32.165 16.825c-1.056-0.033-2.21-0.198-3.167 0.033 0.627 0.165 2.111 0.594 0.726 0.957 0.495 0.726 1.32 0.66 1.847 0.033-0.231-0.099-0.33-0.231-0.528-0.363 0.528-0.099 1.056-0.396 1.122-0.66z"></path>
<path fill="#dc6243" style="fill: var(--color5, #dc6243)" d="M33.353 15.538c-1.748-1.023-1.32-1.781 0.132-2.507 0.759-0.363 2.408-1.715 3.101-1.287-1.089 1.287-2.177 2.54-3.233 3.794z"></path>
<path fill="#f49774" style="fill: var(--color6, #f49774)" d="M32.099 13.13c-1.485-1.518 2.21-1.386 2.804-1.913 0.429 0.132 3.563-2.738 4.322-2.54-0.561 0.627-1.715 2.672-2.573 2.672-0.66 0-1.32-0.099-1.814 0.363-0.726 0.693-1.946 1.023-2.738 1.419z"></path>
<path fill="#f4b1a4" style="fill: var(--color7, #f4b1a4)" d="M32.594 11.282c-0.825 0.429-1.584-1.287-0.165-1.122 0.924 0.099 1.88-0.066 2.738 0.066-0.66 0.759-1.55 1.188-2.573 1.056z"></path>
<path fill="#fff" style="fill: var(--color3, #fff)" d="M36.751 17.32c0.066 0.198 0.099 0.429 0.066 0.66-0.033 0.297-0.33 0.957-0.726 0.759s-0.726-0.561-1.056-0.858c0.264-0.297 0.495-0.561 0.957-0.429 0.132 0.033 0.231 0 0.099-0.099-0.132-0.066-1.023-0.66-1.089-0.594-0.099 0.099 0.165 0.297 0.066 0.495-0.066 0.132-0.198 0.264-0.297 0.396-0.231-0.198-0.627-0.429-0.363-0.759 0.165-0.231 0.429-0.396 0.693-0.429 0.198-0.033 0.594 0.132 0.66-0.066-0.363-0.165-0.726-0.33-1.089-0.528 0.066 0.264-1.089 1.485-1.353 1.814-0.033 0.033-0.231 0.198-0.231 0.264 0 0.132 0.198 0.033 0.231 0.033 0.165-0.066 2.243 1.682 2.309 1.814 0.033 0.099-0.066 0.198 0 0.231 0 0 0.066 0.066 0.099 0.066 0.132-0.165 1.485-1.979 1.781-2.045-0.264-0.396-0.528-0.792-0.792-1.221-0.198 0.099 0 0.33 0.033 0.495z"></path>
<path fill="#fff" style="fill: var(--color3, #fff)" d="M34.705 19.53c-0.693-0.429-1.847 0.429-2.012 0.495-0.33 0.165-0.594-0.165-0.429-0.495 0.165-0.264 0.462-0.396 0.759-0.429 0.099 0 0.429 0.066 0.495 0 0.033-0.066 0.066-0.066 0-0.099-0.297-0.198-0.561-0.396-0.858-0.561-0.066 0.363-0.462 0.561-0.693 0.792-0.264 0.297-0.495 0.627-0.495 1.056 0 0.363 0.231 0.693 0.561 0.891 0.363 0.198 0.759 0.033 1.089-0.165 0.198-0.132 0.429-0.297 0.627-0.396 0.33-0.165 0.759-0.033 0.66 0.429-0.099 0.363-0.462 0.693-0.792 0.759-0.198 0.066-0.429 0.033-0.627-0.033-0.132-0.033-0.33-0.231-0.396-0.033 0.396 0.264 0.759 0.561 1.155 0.825 0.033-0.264 0.165-0.363 0.363-0.528 0.231-0.198 0.462-0.429 0.66-0.693 0.396-0.561 0.528-1.353-0.066-1.814z"></path>
<path fill="#fff" style="fill: var(--color3, #fff)" d="M34.705 19.53c-0.198-0.165 0.33 0.198 0 0v0z"></path>
<path fill="#fff" style="fill: var(--color3, #fff)" d="M46.812 6.466c-0.231 0.231-2.771-0.759-2.969-0.924-0.099-0.033-0.099-0.429-0.231-0.264s-0.264 0.33-0.396 0.495c-0.132 0.165-0.264 0.33-0.429 0.495-0.099 0.099-0.165 0.165 0 0.231 0.264-0.132 1.781 2.408 1.65 2.804-0.231 0.132-2.276-1.682-2.342-1.781-0.033-0.033 0.099-0.33-0.066-0.297-0.066 0-0.231 0.297-0.297 0.363-0.099 0.132-0.198 0.231-0.297 0.363 0.099 0.165 0.165 0 0.33 0 0.132 0.033 0.594 0.429 0.726 0.561-0.231 0-0.891 0.033-0.957 0.033-0.297 0.033-0.132-0.231-0.33-0.297-0.264 0.297-0.495 0.594-0.759 0.924-0.132 0.165-0.297 0.363-0.429 0.528-0.033 0.033 0 0 0 0.033 0.099 0.099 0.033 0.066 0.198 0s2.177 1.617 2.243 1.715c0.132 0.132-0.066 0.33 0.132 0.396 0.198-0.231 0.396-0.495 0.594-0.726 0.033-0.033 0.033-0.033 0-0.066-0.132-0.132-0.165 0.066-0.33 0.066-0.165-0.033-1.452-1.122-1.946-1.518 0.594-0.033 2.408-0.099 2.705-0.099 0.099 0 0.363 0.297 0.363 0.396-0.033 0.132-0.165 0.198 0.033 0.264 0.165-0.198 0.33-0.363 0.495-0.561l0.066-0.099c0.033-0.033 0.033-0.033 0.066-0.099l0.066-0.066c0.132-0.165 0.594-0.66 0.528-0.693-0.165-0.132-0.231 0.165-0.429-0.033-0.099-0.066-0.396-0.594-0.462-0.726-0.099-0.132 0.198-0.297 0.33-0.363 0.264-0.165 1.056-0.396 1.155 0.099 0 0.099-0.099 0.165-0.033 0.231 0 0 0.066 0.066 0.099 0.066 0.066-0.066 0.792-0.924 1.089-1.32-0.099-0.066-0.132-0.099-0.165-0.132zM44.371 7.192c0.033 0 0.066-0.033 0 0-0.099 0.066-0.231 0.165-0.33 0.264-0.165-0.297-0.33-0.594-0.528-0.891 0.396 0.165 0.792 0.33 1.155 0.495-0.066 0.033-0.165 0.066-0.297 0.132z"></path>
<path fill="#fff" style="fill: var(--color3, #fff)" d="M41.171 10.887c-0.792-0.66-1.847-0.462-2.507 0.264-0.627 0.759-0.561 1.88 0.198 2.507s1.88 0.462 2.507-0.264c0.627-0.759 0.594-1.88-0.198-2.507zM41.072 13.064c0 0 0 0.033 0 0-0.429 0.429-1.122 0.033-1.485-0.231s-1.023-0.858-0.627-1.353c0.363-0.429 1.023-0.066 1.386 0.165 0.396 0.264 1.122 0.858 0.759 1.386 0.033-0.033 0.033-0.033-0.033 0.033z"></path>
<path fill="#fff" style="fill: var(--color3, #fff)" d="M41.171 10.887c-0.099-0.066 0.396 0.33 0 0v0z"></path>
<path fill="#fff" style="fill: var(--color3, #fff)" d="M41.072 13.097c0-0.033 0-0.033 0 0 0.033-0.033 0.033-0.033 0.033-0.033-0.033 0-0.033 0.033-0.033 0.033z"></path>
<path fill="#fff" style="fill: var(--color3, #fff)" d="M38.994 13.889c0.033 0.033 0.099 0.099 0 0-0.957-0.726-2.078-0.528-2.804 0.363-0.33 0.396-0.66 0.792-0.99 1.188 0.132 0.165 0.264-0.033 0.429 0.066 0.132 0.099 2.045 1.682 2.078 1.781 0.066 0.165-0.099 0.165 0.033 0.297 0.066 0.033 1.485-1.715 1.617-2.045 0.297-0.594 0.099-1.221-0.363-1.649zM38.565 16.132c-0.066 0.099 0 0.033-0.231 0.231-0.099 0.099-2.111-1.55-2.045-1.617 0.264-0.297 0.858-0.528 1.188-0.429 0.726 0.165 1.715 1.056 1.089 1.814z"></path>
</symbol>
<symbol id="icon-intro-trianglesvg" viewBox="0 0 674 32">
<path d="M140.126 13.305l-140.126-13.305v32h336.842l-196.716-32v13.305z"></path>
<path d="M533.558 13.305v-13.305l-196.716 32h336.786v-32l-140.070 13.305z"></path>
</symbol>
<symbol id="icon-Group" viewBox="0 0 188 32">
<path d="M24.96 16l-0.213 0.213c-1.493 1.6-3.2 2.347-4.8 2.347l2.987-5.227c1.92-3.307 0.107-6.507-2.88-6.507-2.453 0-4.373 0.96-6.187 4.16l-1.6 2.773-1.28 2.24-0.213 0.213c-2.347 2.667-4.587 4.8-5.973 4.8-0.747 0-1.067-0.533-0.32-1.707l6.827-11.947h2.56l0.96-1.493h-2.667l2.987-5.227h-3.2l-2.987 5.227h-2.88l-0.96 1.493h2.88l-6.4 11.093c-1.387 2.347-0.427 4.587 2.133 4.587 1.813 0 3.947-1.387 5.867-3.307 0 4.053 5.653 4.907 9.067 0.533h0.747c1.92 0 4.907-1.173 6.507-3.093 0-0.533-0.533-0.96-0.96-1.173zM18.133 16.213h-0.107c-1.067 0-1.92 0.853-1.92 1.92 0 0.427 0.107 0.747 0.32 1.067v0.107c-1.493 2.56-5.12 2.133-3.307-1.28l2.453-4.16 1.493-2.56c2.24-3.84 5.333-2.347 3.413 0.96l-2.347 3.947z"></path>
<path d="M69.227 16l-0.213 0.213c-2.347 2.667-5.227 4.8-7.467 4.8-1.92 0-3.093-1.28-1.707-3.84l0.32-0.533c2.027 0.853 5.973 0.427 8.32-3.733l0.427-0.747c1.707-2.987 0.107-5.12-2.56-5.12-2.56 0-4.587 1.387-5.973 3.733l-3.093 5.333-0.213 0.213c-2.347 2.667-4.587 4.8-5.973 4.8-0.747 0-1.067-0.533-0.32-1.707l4.587-8.107c1.387-2.453 0.107-4.16-1.707-4.16-1.387 0-2.88 0.747-4.48 2.453l5.12-8.853h-3.2l-8.853 15.253-0.213 0.213c-2.347 2.667-4.587 4.8-5.973 4.8-0.747 0-1.067-0.533-0.32-1.707l6.827-11.947h2.56l0.96-1.493h-2.667l2.987-5.227h-3.2l-2.987 5.227h-2.88l-0.96 1.493h2.88l-6.4 11.093c-1.387 2.347-0.427 4.587 2.133 4.587 1.28 0 2.667-0.64 4.053-1.707l-0.853 1.387h3.2l4.8-8.427c4.907-6.187 7.040-5.333 5.76-2.987l-4.16 7.253c-1.387 2.347-0.427 4.587 2.133 4.587 1.92 0 4.053-1.493 5.973-3.413 0.107 2.027 1.813 3.413 4.373 3.413 3.627 0 7.253-2.773 9.813-5.867 0.107-0.64-0.427-1.067-0.853-1.28zM63.147 11.52c1.813-3.2 5.12-2.667 3.2 0.64l-0.427 0.747c-1.493 2.56-3.627 2.56-4.8 2.133l2.027-3.52z"></path>
<path d="M185.6 16l-0.213 0.213c-1.173 1.387-2.56 2.56-3.84 3.52 1.067-3.093 0.747-7.68 2.773-11.84l-2.347-1.28c-1.28 1.813-4.16 5.973-7.147 9.387l-0.213 0.213c-2.347 2.667-4.587 4.8-5.973 4.8-0.747 0-1.067-0.533-0.32-1.707l6.827-11.947h-3.2l-5.653 9.92c-2.453 2.24-4.267 3.413-4.907 3.2-0.747-0.32 0-1.493 0.427-2.24l6.187-10.88h-3.2l-5.013 8.64-0.213 0.213c-1.493 1.6-3.2 2.347-4.8 2.347l2.987-5.227c1.92-3.307 0.107-6.507-2.88-6.507-2.453 0-4.373 0.96-6.187 4.16l-1.6 2.773-1.28 2.24-0.213 0.213c-2.347 2.667-5.227 4.8-7.467 4.8-1.92 0-3.093-1.28-1.707-3.84l0.32-0.533c2.027 0.853 5.973 0.427 8.32-3.733l0.427-0.747c1.707-2.987 0.107-5.12-2.56-5.12-2.56 0-4.587 1.387-5.973 3.733l-3.093 5.333-0.213 0.213c-2.667 3.093-4.907 5.013-7.467 6.080l7.147-12.267h-1.92c0-1.28-1.387-3.093-3.307-3.093-1.707 0-4.16 1.387-5.44 3.733l-3.093 5.333-0.213 0.213c-2.347 2.667-4.587 4.8-5.973 4.8-0.747 0-1.067-0.533-0.32-1.707l3.2-5.547c1.067-1.92 0.533-3.093-0.427-4.373l-1.813-2.133c-0.427-0.533-0.427-1.28 0.213-1.813l-1.707-1.813c-1.813 1.6-1.92 3.413-0.853 4.907l0.32 0.32c-1.387 2.027-3.307 4.693-5.44 7.147l-0.213 0.213c-1.493 1.6-3.2 2.347-4.8 2.347l2.987-5.227c1.92-3.307 0.107-6.507-2.88-6.507-2.453 0-4.373 0.96-6.187 4.16l-1.6 2.773-1.28 2.24-0.213 0.213c-2.667 3.093-4.907 5.013-7.467 6.080l7.147-12.267h-1.92c0-1.28-1.387-3.093-3.307-3.093-1.707 0-4.16 1.387-5.44 3.733l-4.48 7.787c-1.387 2.347-0.427 4.587 2.133 4.587 0.853 0 1.92-0.427 3.093-1.067l-0.853 1.493c-4.267 1.28-7.040 3.093-7.040 5.44 0 3.093 4.693 3.733 7.040-0.213l2.453-4.16c2.56-0.747 5.013-2.347 7.68-4.8 0 4.053 5.653 4.907 9.067 0.533h0.747c1.92 0 4.907-1.173 6.507-3.093 1.493-1.813 2.773-3.413 5.333-6.827l0.427 0.533c0.427 0.533 0.533 1.173 0.213 1.813l-3.413 5.867c-1.387 2.347-0.427 4.587 2.133 4.587 1.6 0 3.413-1.067 5.12-2.56 0 1.493 0.96 2.56 2.773 2.56 0.853 0 1.92-0.427 3.093-1.067l-0.747 1.28c-4.267 1.28-7.040 3.093-7.040 5.44 0 3.093 4.693 3.733 7.040-0.213l2.453-4.16c2.56-0.853 5.12-2.347 7.787-4.907 0.107 2.027 1.707 3.413 4.373 3.413 2.56 0 5.227-1.493 7.36-3.413-0.107 4.16 5.653 5.013 9.067 0.64h0.747c0.96 0 2.347-0.32 3.52-0.96-0.853 2.24-0.107 3.733 1.707 3.733 1.707 0 3.733-1.6 5.227-3.093-0.32 1.707 0.747 3.093 2.773 3.093 2.667 0 5.653-2.773 8.32-5.867 1.813-2.133 3.413-4.373 4.587-5.867-1.28 3.307-0.533 9.28-3.627 9.28-1.067 0-1.493-1.173-1.493-1.173l-2.027 1.067c0 0 0.533 2.56 3.52 2.56 0.32 0 0.533 0 0.853-0.107h0.107c3.307-0.427 6.507-2.987 8.853-5.76-0.107-0.533-0.64-1.067-1.173-1.173zM139.84 11.52c1.813-3.2 5.12-2.667 3.2 0.64l-0.427 0.747c-1.493 2.56-3.627 2.56-4.8 2.133l2.027-3.52zM78.827 28.16c-0.64 1.173-1.707 1.067-1.707 0.107 0-0.853 0.747-1.813 3.2-2.773l-1.493 2.667zM80.32 21.013c-0.747 0-1.067-0.533-0.32-1.707l4.48-7.787c1.707-2.987 5.12-2.24 3.52 0.64l-2.453 4.267c-1.92 3.093-3.947 4.587-5.227 4.587zM99.947 16.213h-0.107c-1.067 0-1.92 0.853-1.92 1.92 0 0.427 0.107 0.747 0.32 1.067v0.107c-1.493 2.56-5.12 2.133-3.307-1.28l2.453-4.16 1.493-2.56c2.24-3.84 5.333-2.347 3.413 0.96l-2.347 3.947zM120 28.16c-0.64 1.173-1.707 1.067-1.707 0.107 0-0.853 0.747-1.813 3.2-2.773l-1.493 2.667zM121.493 21.013c-0.747 0-1.067-0.533-0.32-1.707l4.48-7.787c1.707-2.987 5.12-2.24 3.52 0.64l-2.453 4.267c-1.92 3.093-3.947 4.587-5.227 4.587zM152.96 16.213h-0.107c-1.067 0-1.92 0.853-1.92 1.92 0 0.427 0.107 0.747 0.32 1.067v0.107c-1.493 2.56-5.12 2.133-3.307-1.28l2.453-4.16 1.493-2.56c2.24-3.84 5.333-2.347 3.413 0.96l-2.347 3.947z"></path>
</symbol>
<symbol id="icon-Group2" viewBox="0 0 121 32">
<path d="M9.429 5.419c3.285-1.109 3.499-5.205 0.299-5.205-0.896 0-1.963 0.64-2.688 1.877l-4.352 7.552c-0.213 0.341-0.384 0.64-0.64 0.939-1.109-1.536-0.811-3.84 0.768-4.864l-0.64-0.811c-3.413 2.176-2.389 8.405 3.285 8.405 4.821 0 7.083-5.803 3.968-7.893zM5.419 12.075c-0.981 0-1.707-0.213-2.347-0.555 0.299-0.341 0.555-0.725 0.811-1.152l2.731-4.736 0.427 0.043c3.797 0.811 2.304 6.4-1.621 6.4zM7.168 4.693l1.323-2.261c1.195-2.048 2.688-0.853 1.877 0.683-0.64 1.195-1.536 1.536-3.2 1.579z"></path>
<path d="M23.125 10.667c-0.256 0.939 0.256 1.749 1.323 1.749 0.64 0 1.451-0.427 2.261-1.067 0.085 0.64 0.597 1.067 1.408 1.067 0.853 0 1.792-0.597 2.731-1.451-0.171 0.853 0.213 1.451 1.024 1.451 0.896 0 1.877-0.811 2.645-1.536-0.171 0.853 0.341 1.536 1.365 1.536 1.323 0 2.859-1.451 4.224-2.987 0-0.043-0.043-0.043-0.043-0.085 0.896-1.024 1.664-2.133 2.261-2.901-0.64 1.664-0.299 4.693-1.835 4.693-0.555 0-0.768-0.597-0.768-0.597l-1.024 0.512c0 0 0.299 1.323 1.792 1.323 0.171 0 0.299 0 0.469-0.043h0.043c1.195-0.171 2.347-0.896 3.371-1.792 0.043 1.067 0.853 1.835 2.176 1.835 1.835 0 3.669-1.451 4.992-2.987-0.128-0.213-0.384-0.469-0.597-0.555l-0.128 0.128c-1.152 1.365-2.645 2.432-3.797 2.432-0.981 0-1.579-0.64-0.853-1.92l0.171-0.299c1.024 0.427 2.987 0.213 4.224-1.877l0.213-0.384c0.853-1.493 0.043-2.603-1.28-2.603s-2.347 0.683-3.029 1.877l-1.579 2.688h-0.043l-0.128 0.128c-0.597 0.683-1.323 1.323-1.963 1.749 0.512-1.536 0.384-3.925 1.408-5.973l-1.195-0.64c-0.683 0.939-2.133 3.029-3.584 4.736l0.043 0.043-0.043 0.085c-1.152 1.365-2.304 2.432-3.029 2.432-0.341 0-0.555-0.256-0.171-0.896l3.456-6.059h-1.621l-2.859 5.035c-1.237 1.109-2.176 1.749-2.475 1.621-0.384-0.171 0-0.768 0.213-1.109l3.157-5.504h-1.621l-2.56 4.437c-0.043-0.043-0.085-0.043-0.128-0.085l-0.128 0.128c-1.152 1.365-2.304 2.432-3.029 2.432-0.341 0-0.555-0.256-0.171-0.896l2.603-4.565h-0.939c0.043-0.683-0.64-1.621-1.707-1.621-0.853 0-2.091 0.683-2.773 1.877l-1.621 2.816c-0.085-0.085-0.171-0.128-0.256-0.171l-0.128 0.128c-1.152 1.365-2.645 2.432-3.797 2.432-0.981 0-1.579-0.64-0.853-1.92l1.664-2.901c0.939-1.621 2.603-1.323 1.621 0.341l-0.213 0.384h1.323l0.213-0.384c0.853-1.493 0.043-2.603-1.28-2.603s-2.347 0.683-3.029 1.877l-1.621 2.773c-0.043-0.043-0.085-0.043-0.128-0.085l-0.128 0.128c-1.152 1.365-2.645 2.432-3.797 2.432-0.981 0-1.579-0.64-0.853-1.92l0.171-0.299c1.024 0.427 2.987 0.213 4.224-1.877l0.213-0.384c0.853-1.493 0.043-2.603-1.28-2.603s-2.347 0.683-3.029 1.877l-1.707 2.901c-1.024 1.707-0.128 3.328 1.792 3.328 1.408 0 2.859-0.853 4.011-1.963-0.043 1.109 0.811 1.963 2.176 1.963 1.365-0.085 2.688-0.853 3.84-1.835zM47.872 6.571c0.939-1.621 2.603-1.323 1.621 0.341l-0.213 0.384c-0.768 1.323-1.835 1.28-2.432 1.067l1.024-1.792zM24.747 10.539l2.261-3.925c0.853-1.493 2.603-1.109 1.792 0.341l-1.28 2.219c-0.981 1.536-1.963 2.261-2.603 2.261-0.341-0.043-0.555-0.256-0.171-0.896zM14.421 6.571c0.939-1.621 2.603-1.323 1.621 0.341l-0.213 0.384c-0.768 1.323-1.835 1.28-2.432 1.067l1.024-1.792z"></path>
<path d="M69.291 12.416c1.835 0 3.669-1.451 4.992-2.987-0.128-0.213-0.384-0.469-0.597-0.555l-0.128 0.128c-1.152 1.365-2.645 2.432-3.797 2.432-0.981 0-1.579-0.64-0.853-1.92l0.171-0.299c1.024 0.427 2.987 0.213 4.224-1.877l0.213-0.384c0.853-1.493 0.043-2.603-1.28-2.603s-2.347 0.683-3.029 1.877l-1.579 2.688c0 0-0.043 0-0.043-0.043l-0.128 0.128c-1.152 1.365-2.304 2.432-3.029 2.432-0.341 0-0.555-0.256-0.171-0.896l2.347-4.096c0.683-1.237 0.043-2.133-0.853-2.133-0.683 0-1.451 0.384-2.261 1.237l2.603-4.48h-1.664l-4.565 7.893c-0.043-0.043-0.128-0.085-0.171-0.128l-0.128 0.128c-1.152 1.365-2.304 2.432-3.029 2.432-0.341 0-0.555-0.256-0.171-0.896l3.456-6.059h1.323l0.469-0.768h-1.323l1.536-2.645h-1.621l-1.536 2.645h-1.451l-0.469 0.768h1.493l-3.243 5.632c-0.683 1.195-0.213 2.304 1.109 2.304 0.811 0 1.664-0.512 2.56-1.28l-0.64 1.109h1.621l2.475-4.267c2.475-3.115 3.584-2.731 2.901-1.536l-2.091 3.669c-0.683 1.195-0.213 2.304 1.109 2.304 0.981 0 2.091-0.768 3.115-1.792 0 1.067 0.811 1.835 2.133 1.835zM70.613 6.571c0.939-1.621 2.603-1.323 1.621 0.341l-0.213 0.384c-0.768 1.323-1.835 1.28-2.432 1.067l1.024-1.792z"></path>
<path d="M118.357 8.875l-0.128 0.128c-1.152 1.365-2.304 2.432-3.029 2.432-0.341 0-0.555-0.256-0.171-0.896l5.461-9.472h-1.621l-2.389 4.096c-0.299-0.469-0.811-0.853-1.493-0.853-0.853 0-2.091 0.683-2.773 1.877l-1.579 2.731c-0.043 0-0.085-0.043-0.085-0.043l-0.128 0.128c-1.152 1.365-2.304 2.432-3.029 2.432-0.341 0-0.555-0.256-0.171-0.896l2.347-4.096c0.683-1.237 0.043-2.133-0.853-2.133-0.683 0-1.451 0.384-2.261 1.195l0.597-1.067h-1.621l-2.603 4.48c-0.043-0.043-0.085-0.085-0.171-0.085l-0.128 0.128c-1.152 1.365-2.304 2.432-3.029 2.432-0.341 0-0.555-0.256-0.171-0.896l2.603-4.565h-0.811c0.043-0.683-0.64-1.621-1.707-1.621-0.853 0-2.091 0.683-2.773 1.877l-1.579 2.688-0.085 0.085c-1.152 1.365-2.304 2.432-3.029 2.432-0.341 0-0.555-0.256-0.171-0.896l1.621-2.816c0.555-0.981 0.299-1.536-0.213-2.176l-0.896-1.109c-0.213-0.299-0.213-0.64 0.085-0.939l-0.853-0.939c-0.939 0.811-0.981 1.749-0.427 2.475l0.128 0.171c-0.725 1.024-1.664 2.389-2.731 3.627 0.043 0.043 0.085 0.085 0.128 0.128-1.323 1.536-2.475 2.517-3.755 3.072l2.048-3.499h-1.579l-0.171 0.299c-0.853 1.493-1.835 2.603-3.115 2.603-1.109 0-1.323-1.109-0.341-2.773l0.469-0.811c0.299 0.043 0.597 0.085 0.939 0.085 5.76 0 8.533-7.723 3.456-7.723-0.896 0-1.963 0.64-2.688 1.877l-2.517 4.352c-0.939-0.512-1.451-1.408-1.451-2.304 0-0.768 0.341-1.493 1.024-2.048l-0.512-0.939c-1.152 0.811-1.664 1.92-1.664 3.029 0 1.28 0.725 2.517 2.048 3.2l-0.469 0.853c-1.152 1.963-0.939 4.139 1.365 4.139 0.683 0 1.28-0.213 1.749-0.512l-0.427 0.725c-2.176 0.683-3.541 1.536-3.541 2.773 0 1.536 2.389 1.877 3.541-0.128l1.237-2.133c1.664-0.512 3.328-1.664 5.12-3.755-0.043-0.043-0.043-0.085-0.085-0.171 0.725-0.853 1.323-1.664 2.56-3.328l0.213 0.256c0.213 0.256 0.299 0.597 0.085 0.939l-1.707 2.987c-0.683 1.195-0.213 2.304 1.109 2.304 0.811 0 1.707-0.512 2.56-1.28 0 0.725 0.469 1.28 1.408 1.28 0.64 0 1.451-0.427 2.261-1.067 0.085 0.64 0.597 1.067 1.408 1.067 0.768 0 1.621-0.469 2.432-1.195l-0.597 1.024h1.621l2.475-4.309c2.475-3.115 3.584-2.688 2.859-1.493l-2.091 3.669c-0.683 1.195-0.213 2.304 1.109 2.304 0.853 0 1.792-0.597 2.731-1.408-0.085 0.811 0.427 1.408 1.408 1.408 0.64 0 1.451-0.427 2.261-1.067 0.085 0.64 0.597 1.067 1.408 1.067 1.323 0 2.859-1.451 4.224-2.987-0.171-0.085-0.469-0.341-0.683-0.427zM85.12 2.816c0.469-0.811 1.024-1.195 1.451-1.195 2.56 0 0.768 5.248-3.456 5.248h-0.341l2.347-4.053zM81.664 15.019c-0.341 0.597-0.896 0.512-0.896 0.085s0.384-0.896 1.621-1.365l-0.725 1.28zM98.603 9.131c-0.981 1.536-1.963 2.261-2.603 2.261-0.341 0-0.555-0.256-0.171-0.896l2.261-3.925c0.853-1.493 2.603-1.109 1.792 0.341l-1.28 2.219zM114.261 9.045c-0.981 1.621-1.963 2.347-2.645 2.347-0.341 0-0.555-0.256-0.171-0.896l2.261-3.925c0.853-1.493 2.603-1.109 1.792 0.341l-1.237 2.133z"></path>
<path d="M64.299 24.235l-0.128 0.128c-1.152 1.365-2.304 2.432-3.029 2.432-0.341 0-0.555-0.256-0.171-0.896l2.347-4.096c0.683-1.237 0.043-2.133-0.853-2.133-0.683 0-1.451 0.384-2.261 1.195l0.597-1.067h-1.621l-2.603 4.523c-0.085-0.043-0.128-0.085-0.213-0.128l-0.128 0.128c-0.725 0.811-1.621 1.195-2.432 1.195l1.536-2.645c0.981-1.707 0.085-3.285-1.451-3.285-1.237 0-2.219 0.512-3.157 2.133l-0.811 1.365-0.683 1.195c-0.043-0.043-0.085-0.043-0.128-0.085l-0.128 0.128c-1.323 1.536-2.475 2.517-3.755 3.072l4.437-7.595h-1.621l-2.859 4.992c-1.237 1.152-2.219 1.792-2.517 1.664-0.384-0.171 0-0.768 0.213-1.109l3.157-5.504h-1.621l-2.603 4.48c-0.043-0.043-0.085-0.043-0.128-0.085l-0.128 0.128c-1.152 1.365-2.304 2.432-3.029 2.432-0.341 0-0.555-0.256-0.171-0.896l2.347-4.096c0.683-1.237 0.043-2.133-0.853-2.133-0.683 0-1.451 0.384-2.261 1.195l0.597-1.067h-1.621l-2.603 4.48c-0.043-0.043-0.085-0.085-0.171-0.085l-0.128 0.128c-1.152 1.365-2.304 2.432-3.029 2.432-0.341 0-0.555-0.256-0.171-0.896l2.603-4.565h-0.939c0.043-0.683-0.64-1.621-1.707-1.621-0.853 0-2.091 0.683-2.773 1.877l-1.664 2.901c-0.128-0.085-0.256-0.171-0.341-0.213l-0.128 0.128c-1.152 1.365-2.603 2.432-4.181 2.432-1.109 0-1.792-1.109-0.811-2.773l0.469-0.811c0.299 0.043 0.597 0.085 0.939 0.085 1.707 0 3.669-0.896 4.949-3.115 0.469-0.811 0.64-1.536 0.64-2.176 0-1.451-0.939-2.432-2.133-2.432-0.896 0-1.963 0.64-2.688 1.877l-2.517 4.352c-0.939-0.512-1.451-1.408-1.451-2.304 0-0.768 0.341-1.493 1.024-2.048l-0.512-0.939c-1.152 0.811-1.664 1.92-1.664 3.029 0 1.28 0.725 2.517 2.048 3.2l-0.469 0.853c-1.152 1.963-0.469 4.139 1.835 4.139 1.792 0 3.157-0.811 4.267-1.877-0.341 1.024 0.171 1.877 1.323 1.877 0.64 0 1.451-0.427 2.261-1.067 0.085 0.64 0.597 1.067 1.408 1.067 0.768 0 1.621-0.469 2.432-1.195l-0.597 1.024h1.621l2.475-4.309c2.475-3.115 3.584-2.688 2.859-1.493l-2.091 3.669c-0.683 1.195-0.213 2.304 1.109 2.304 0.853 0 1.835-0.597 2.773-1.451-0.213 0.896 0.213 1.451 1.024 1.451 0.768 0 1.664-0.64 2.389-1.323l-0.896 1.536c-2.176 0.64-3.584 1.536-3.584 2.773 0 1.536 2.389 1.877 3.541-0.128l1.237-2.133c1.365-0.427 2.688-1.28 4.096-2.645-0.213 2.261 2.773 2.773 4.608 0.469h0.341c0.597 0 1.408-0.213 2.133-0.64l-1.067 1.877h1.621l2.475-4.309c2.475-3.115 3.584-2.688 2.859-1.493l-2.091 3.669c-0.683 1.195-0.213 2.304 1.109 2.304s2.859-1.451 4.224-2.987c-0.043-0.128-0.341-0.384-0.555-0.469zM24.021 18.176c0.469-0.811 1.024-1.195 1.451-1.195 0.597 0 0.896 0.384 0.896 0.981 0 1.493-1.835 4.224-4.352 4.224h-0.341l2.347-4.011zM29.739 24.491c-0.981 1.536-1.963 2.261-2.603 2.261-0.341 0-0.555-0.256-0.171-0.896l2.261-3.925c0.853-1.493 2.603-1.109 1.792 0.341l-1.28 2.219zM42.027 30.379c-0.341 0.597-0.896 0.512-0.896 0.085s0.384-0.896 1.621-1.365l-0.725 1.28zM52.949 24.32h-0.085c-0.512 0-0.939 0.427-0.939 0.981 0 0.213 0.043 0.384 0.171 0.555v0.043c-0.768 1.323-2.603 1.067-1.664-0.64l2.005-3.456c1.152-1.92 2.688-1.152 1.707 0.512l-1.195 2.005z"></path>
<path d="M101.803 24.789c-0.085-0.256-0.384-0.512-0.597-0.555l-0.128 0.128c-0.597 0.683-1.323 1.323-1.963 1.749 0.512-1.536 0.384-3.925 1.408-5.973l-1.195-0.64c-0.683 0.939-2.133 3.029-3.584 4.736l-0.128 0.128c-1.152 1.365-2.304 2.432-3.029 2.432-0.341 0-0.683-0.341-0.683-1.109v-0.683c1.152 0.128 2.347-0.597 3.115-1.92l0.427-0.768c1.493-2.603-0.939-3.456-2.603-1.92l2.304-4.011h-1.621l-4.608 8.021c-0.085-0.085-0.213-0.171-0.299-0.213l-0.128 0.128c-1.152 1.365-2.645 2.432-3.797 2.432-0.981 0-1.579-0.64-0.853-1.92l1.664-2.901c0.939-1.621 2.603-1.323 1.621 0.341l-0.213 0.384h1.323l0.213-0.384c0.853-1.493 0.043-2.603-1.28-2.603s-2.347 0.683-3.029 1.877l-1.579 2.731c-0.043 0-0.085-0.043-0.085-0.043l-0.128 0.128c-1.152 1.365-2.304 2.432-3.029 2.432-0.341 0-0.555-0.256-0.171-0.896l3.456-6.059h-1.621l-2.859 5.035c-1.237 1.109-2.176 1.749-2.475 1.621-0.384-0.171 0-0.768 0.213-1.109l3.157-5.504h-1.621l-3.157 5.419c-0.341 0.299-0.725 0.597-1.024 0.853 0.512-1.536 0.384-3.925 1.408-5.973l-1.195-0.64c-0.683 0.939-4.395 5.888-5.888 7.595 0.128 0.213 0.384 0.384 0.597 0.555 0.939-1.067 4.011-5.035 4.565-5.803-0.64 1.664-0.299 4.693-1.835 4.693-0.555 0-0.768-0.597-0.768-0.597l-1.024 0.512c0 0 0.299 1.323 1.792 1.323 0.171 0 0.299 0 0.469-0.043h0.043c0.811-0.128 1.621-0.469 2.389-1.024 0 0.64 0.384 1.067 1.067 1.067 0.896 0 1.877-0.811 2.645-1.536-0.171 0.853 0.341 1.536 1.365 1.536s2.133-0.811 3.2-1.877c0 1.067 0.853 1.877 2.176 1.877s2.603-0.725 3.755-1.707l-0.896 1.579h1.621l1.835-3.2v1.28c0 1.365 0.256 2.091 1.579 2.091s2.859-1.451 4.224-2.987c0.939-1.067 1.707-2.176 2.304-2.944-0.64 1.664-0.299 4.693-1.835 4.693-0.555 0-0.768-0.597-0.768-0.597l-1.024 0.512c0 0 0.299 1.323 1.792 1.323 0.171 0 0.299 0 0.469-0.043h0.043c1.621-0.299 3.285-1.621 4.48-3.029zM91.051 23.509l0.469-0.811c1.877-2.603 3.157-1.877 2.56-0.896l-0.768 1.323c-0.469 0.853-1.877 1.451-2.261 0.384z"></path>
<path d="M101.76 25.899c-0.512 0-0.939 0.427-0.939 0.939s0.384 0.939 0.939 0.939c0.512 0 0.939-0.384 0.939-0.939 0-0.512-0.427-0.939-0.939-0.939z"></path>
<path d="M101.845 25.259h1.621l5.077-8.832h-1.621l-5.077 8.832z"></path>
</symbol>
<symbol id="icon-welcome" viewBox="0 0 134 32">
<path d="M20.053 0h5.476l-0.853 31.929h-10.311l-1.422-13.156-1.422 13.156h-10.382l-0.782-31.929h5.404l0.427 26.453h0.569l3.484-26.453h5.404l3.484 26.453h0.569l0.356-26.453z"></path>
<path d="M42.667 26.453v5.547h-14.862v-32h14.862v5.476h-9.458v7.68h7.538v5.476h-7.538v7.751h9.458v0.071z"></path>
<path d="M57.884 26.453v5.547h-13.013v-32h5.404v26.453h7.609z"></path>
<path d="M69.404 20.196l5.476-1.28v9.671c0 1.849-1.564 3.342-3.342 3.342h-8.178c-1.849 0-3.342-1.564-3.342-3.342v-25.244c0-1.849 1.493-3.342 3.342-3.342h8.178c1.778 0 3.342 1.493 3.342 3.342v6.471l-5.476 1.28v-5.689h-3.911v20.978h3.911v-6.187z"></path>
<path d="M89.671 0c1.778 0 3.342 1.493 3.342 3.342v25.173c0 1.849-1.564 3.342-3.342 3.342h-8.178c-1.849 0-3.342-1.564-3.342-3.342v-25.173c0-1.849 1.493-3.342 3.342-3.342h8.178zM87.538 5.476h-3.911v20.978h3.911v-20.978z"></path>
<path d="M110.791 0h5.404v31.929h-5.404v-15.716l-2.204 8.107h-5.333l-2.133-8.107v15.716h-5.404v-31.929h5.404l4.836 15.431 4.836-15.431z"></path>
<path d="M133.76 26.453v5.547h-14.862v-32h14.862v5.476h-9.458v7.68h7.538v5.476h-7.538v7.751h9.458v0.071z"></path>
</symbol>
<symbol id="icon-twitter" viewBox="0 0 38 32">
<path d="M24.107 0.356c3.627-1.067 6.613 0.427 7.893 2.347 1.493-0.427 2.987-1.067 4.48-1.493 0 1.707-1.067 3.2-1.92 3.627 1.493 0.427 2.773-1.067 2.773-1.067-0.427 2.133-2.133 3.627-3.413 4.267-0.427 14.080-7.040 23.467-22.187 23.040-1.067 0 0.213 0-1.067 0-0.853 0-9.173-0.853-10.667-3.84 4.907 0.427 8.533-0.853 10.24-2.347-2.133-0.64-5.973-1.067-6.613-6.187 0.853 0.213 1.28 0.427 2.773 0.213-2.56-1.707-5.547-3.2-5.333-7.893 0.64 0.64 2.347 1.067 2.987 1.067-1.493-0.427-4.267-7.040-1.92-10.24 4.053 3.84 8.107 7.467 15.787 7.893 0.213-4.907 2.347-8.107 6.187-9.387z"></path>
</symbol>
<symbol id="icon-youtube" viewBox="0 0 46 32">
<path d="M39.086 0h-32.686c-3.429 0-6.4 2.971-6.4 6.4v18.971c0 3.657 2.971 6.629 6.4 6.629h32.686c3.657 0 6.4-2.971 6.4-6.4v-19.2c0.229-3.429-2.743-6.4-6.4-6.4zM16 23.771v-15.543l15.543 7.771-15.543 7.771z"></path>
</symbol>
<symbol id="icon-intro-trianglesvg" viewBox="0 0 674 32">
<path d="M140.126 13.305l-140.126-13.305v32h336.842l-196.716-32v13.305z"></path>
<path d="M533.558 13.305v-13.305l-196.716 32h336.786v-32l-140.070 13.305z"></path>
</symbol>
</defs>
</svg>
